<svg xmlns="http://www.w3.org/2000/svg" width="299.405" height="162.369" viewBox="0 0 299.405 162.369">
  <g id="Vector_Smart_Object" data-name="Vector Smart Object" transform="matrix(1, 0, 0, 1, -1137.842, -958.058)">
    <path id="Контур_1" data-name="Контур 1" d="M1196.449,1053.244c0-17.48,13.628-30.77,42.337-30.77h11.084v-2.913c0-7.1-3.816-10.561-10.357-10.561-5.088,0-9.085,2.185-10.721,6.737h-29.619c3.089-19.846,17.808-32.591,40.339-32.591s37.976,12.927,37.976,36.414v60.811H1249.87v-6.736c-5.633,6.009-13.628,9.286-23.44,9.286-18.171,0-29.981-12.2-29.981-29.677m53.421-6.373V1042.5h-11.084c-10.538,0-14.718,2.549-14.718,8.557s4.906,8.557,11.083,8.557c10.176,0,14.719-6.736,14.719-12.745" fill="#fff"/>
    <path id="Контур_2" data-name="Контур 2" d="M1390.865,1033.034c0,32.773-21.441,49.887-43.428,49.887-12.537,0-22.349-4.188-29.254-12.2v49.705h-27.619V985.7h27.619v9.65c6.905-8.011,16.717-12.2,29.254-12.2,21.986,0,43.428,17.114,43.428,49.887m-28.709,0c0-15.293-8.722-24.033-21.986-24.033s-21.986,8.74-21.986,24.033,8.722,24.033,21.986,24.033,21.986-8.739,21.986-24.033" fill="#fff"/>
    <path id="Контур_3" data-name="Контур 3" d="M1399.816,1063.8c0-10.559,7.814-19.118,18.714-19.118s18.717,8.558,18.717,19.118-7.814,19.118-18.717,19.118-18.714-8.558-18.714-19.118" fill="#0ef2a2"/>
    <path id="Контур_4" data-name="Контур 4" d="M1164.772,1044.522v-32.2a26.958,26.958,0,0,0,26.675-26.982h-26.675V958.058h-26.93v87.949c0,20.956,15.132,33.994,36,34.365h14.425v-23.526h-14.425c-7.536.525-9.067-6.549-9.067-12.323" fill="#fff" fill-rule="evenodd"/>
    <path id="Контур_5" data-name="Контур 5" d="M1141.756,1092.376h-1.272v2.412a.3.3,0,0,0,.321.333h.837v1.666h-.837a1.916,1.916,0,0,1-2.063-2v-2.412h-.895v-1.563h.895v-1.492h1.742v1.492h1.272Z" fill="#fff"/>
    <path id="Контур_6" data-name="Контур 6" d="M1142.617,1095.074c0-1.1.86-1.941,2.671-1.941h.7v-.184a.591.591,0,0,0-.654-.666.66.66,0,0,0-.677.425h-1.868a2.369,2.369,0,0,1,2.544-2.056,2.173,2.173,0,0,1,2.4,2.3v3.836h-1.742v-.425a1.96,1.96,0,0,1-1.479.585,1.782,1.782,0,0,1-1.891-1.872m3.37-.4v-.275h-.7c-.666,0-.929.161-.929.54s.309.539.7.539a.834.834,0,0,0,.928-.8" fill="#fff"/>
    <rect id="Прямоугольник_1" data-name="Прямоугольник 1" width="1.742" height="8.27" transform="translate(1149.105 1088.515)" fill="#fff"/>
    <path id="Контур_7" data-name="Контур 7" d="M1152.075,1089.354a1.02,1.02,0,1,1,1.021,1,.984.984,0,0,1-1.021-1m.149,1.459h1.742v5.973h-1.742Z" fill="#fff"/>
    <path id="Контур_8" data-name="Контур 8" d="M1155.109,1094.9h1.777a.6.6,0,0,0,.654.529c.321,0,.516-.161.516-.4,0-.919-2.935.046-2.935-2.389a2.327,2.327,0,0,1,4.584-.115h-1.777a.475.475,0,0,0-.515-.356c-.287,0-.481.161-.481.38,0,.918,2.935-.046,2.935,2.389a2.154,2.154,0,0,1-2.327,2.009,2.232,2.232,0,0,1-2.43-2.044" fill="#fff"/>
    <path id="Контур_9" data-name="Контур 9" d="M1170.163,1093.11v3.675h-1.742v-3.33c0-.746-.322-1.172-.895-1.172a1.068,1.068,0,0,0-1.067,1.172v3.33h-1.742v-3.33c0-.746-.321-1.172-.894-1.172a1.067,1.067,0,0,0-1.067,1.172v3.33h-1.742v-5.973h1.742v.7a2.1,2.1,0,0,1,1.686-.862,1.8,1.8,0,0,1,1.708,1,2.341,2.341,0,0,1,1.995-1c1.261,0,2.018.9,2.018,2.458" fill="#fff"/>
    <path id="Контур_10" data-name="Контур 10" d="M1171.307,1095.074c0-1.1.86-1.941,2.672-1.941h.7v-.184a.591.591,0,0,0-.652-.666.658.658,0,0,0-.677.425h-1.869a2.369,2.369,0,0,1,2.546-2.056,2.173,2.173,0,0,1,2.395,2.3v3.836h-1.742v-.425a1.96,1.96,0,0,1-1.479.585,1.783,1.783,0,0,1-1.891-1.872m3.37-.4v-.275h-.7c-.666,0-.929.161-.929.54s.309.539.7.539a.833.833,0,0,0,.928-.8" fill="#fff"/>
    <path id="Контур_11" data-name="Контур 11" d="M1183.475,1093.11v3.675h-1.742v-3.33c0-.746-.39-1.172-1.009-1.172a1.094,1.094,0,0,0-1.181,1.172v3.33H1177.8v-5.973h1.742v.713a2.218,2.218,0,0,1,1.8-.873c1.307,0,2.132.9,2.132,2.458" fill="#fff"/>
    <path id="Контур_12" data-name="Контур 12" d="M1188.059,1095.074c0-1.1.86-1.941,2.672-1.941h.7v-.184a.591.591,0,0,0-.653-.666.66.66,0,0,0-.677.425h-1.868a2.369,2.369,0,0,1,2.544-2.056,2.173,2.173,0,0,1,2.4,2.3v3.836h-1.742v-.425a1.959,1.959,0,0,1-1.479.585,1.783,1.783,0,0,1-1.891-1.872m3.37-.4v-.275h-.7c-.666,0-.929.161-.929.54s.309.539.7.539a.834.834,0,0,0,.928-.8" fill="#fff"/>
    <path id="Контур_13" data-name="Контур 13" d="M1198.9,1088.516h1.742v8.27H1198.9v-.61a2.32,2.32,0,0,1-1.846.771,3.177,3.177,0,0,1,0-6.294,2.319,2.319,0,0,1,1.846.769Zm0,5.283a1.393,1.393,0,1,0-1.388,1.517,1.346,1.346,0,0,0,1.388-1.517" fill="#fff"/>
    <path id="Контур_14" data-name="Контур 14" d="M1204.533,1096.946l-3.1-6.133h1.9l1.25,2.6,1.249-2.6h1.788Z" fill="#fff"/>
    <path id="Контур_15" data-name="Контур 15" d="M1208.285,1089.354a1.022,1.022,0,1,1,1.016,1,.984.984,0,0,1-1.016-1m.15,1.459h1.742v5.973h-1.742Z" fill="#fff"/>
    <path id="Контур_16" data-name="Контур 16" d="M1211.321,1094.9h1.777a.6.6,0,0,0,.653.529c.321,0,.516-.161.516-.4,0-.919-2.935.046-2.935-2.389a2.327,2.327,0,0,1,4.585-.115h-1.777a.475.475,0,0,0-.515-.356c-.287,0-.481.161-.481.38,0,.918,2.935-.046,2.935,2.389a2.154,2.154,0,0,1-2.328,2.009,2.232,2.232,0,0,1-2.43-2.044" fill="#fff"/>
    <path id="Контур_17" data-name="Контур 17" d="M1216.941,1093.8a3.2,3.2,0,1,1,3.2,3.148,3.058,3.058,0,0,1-3.2-3.148m4.586,0a1.393,1.393,0,1,0-1.388,1.517,1.346,1.346,0,0,0,1.388-1.517" fill="#fff"/>
    <path id="Контур_18" data-name="Контур 18" d="M1226.226,1091.525a2.216,2.216,0,0,1,1.8-.873v1.792c-1.318-.275-1.8.265-1.8,1.011v3.332h-1.742v-5.974h1.742Z" fill="#fff"/>
    <path id="Контур_19" data-name="Контур 19" d="M1229.366,1099.313l1.33-3.285-2.27-5.215h1.9l1.284,3.067,1.193-3.067h1.81l-3.438,8.5Z" fill="#fff"/>
    <path id="Контур_20" data-name="Контур 20" d="M1245.193,1093.8a2.844,2.844,0,0,1-2.741,3.148,2.316,2.316,0,0,1-1.845-.771v3.136h-1.742v-8.5h1.742v.61a2.315,2.315,0,0,1,1.845-.769,2.843,2.843,0,0,1,2.741,3.146m-1.811,0a1.393,1.393,0,1,0-1.388,1.517,1.346,1.346,0,0,0,1.388-1.517" fill="#fff"/>
    <path id="Контур_21" data-name="Контур 21" d="M1246.107,1095.074c0-1.1.86-1.941,2.672-1.941h.7v-.184a.591.591,0,0,0-.654-.666.66.66,0,0,0-.676.425h-1.868a2.369,2.369,0,0,1,2.544-2.056,2.173,2.173,0,0,1,2.4,2.3v3.836h-1.742v-.425a1.96,1.96,0,0,1-1.479.585,1.783,1.783,0,0,1-1.891-1.872m3.37-.4v-.275h-.7c-.666,0-.929.161-.929.54s.309.539.7.539a.834.834,0,0,0,.928-.8" fill="#fff"/>
    <path id="Контур_22" data-name="Контур 22" d="M1254.338,1091.525a2.215,2.215,0,0,1,1.8-.873v1.792c-1.318-.275-1.8.265-1.8,1.011v3.332H1252.6v-5.974h1.742Z" fill="#fff"/>
    <path id="Контур_23" data-name="Контур 23" d="M1260.56,1092.376h-1.273v2.412a.3.3,0,0,0,.322.333h.836v1.666h-.836a1.916,1.916,0,0,1-2.064-2v-2.412h-.894v-1.563h.894v-1.492h1.742v1.492h1.273Z" fill="#fff"/>
    <path id="Контур_24" data-name="Контур 24" d="M1267.384,1093.11v3.675h-1.742v-3.33c0-.746-.39-1.172-1.009-1.172a1.094,1.094,0,0,0-1.181,1.172v3.33h-1.742v-5.973h1.742v.713a2.218,2.218,0,0,1,1.8-.873c1.307,0,2.132.9,2.132,2.458" fill="#fff"/>
    <path id="Контур_25" data-name="Контур 25" d="M1274.689,1094.4h-4.333a1.276,1.276,0,0,0,1.3.919,1.16,1.16,0,0,0,1-.436h1.994a3.158,3.158,0,0,1-6.121-1.079,3.084,3.084,0,1,1,6.167,0Zm-1.868-1.263a1.157,1.157,0,0,0-1.227-.965,1.216,1.216,0,0,0-1.249.965Z" fill="#fff"/>
    <path id="Контур_26" data-name="Контур 26" d="M1277.578,1091.525a2.215,2.215,0,0,1,1.8-.873v1.792c-1.318-.275-1.8.265-1.8,1.011v3.332h-1.742v-5.974h1.742Z" fill="#fff"/>
    <path id="Контур_27" data-name="Контур 27" d="M1280.014,1094.9h1.777a.6.6,0,0,0,.653.529c.321,0,.516-.161.516-.4,0-.919-2.935.046-2.935-2.389a2.327,2.327,0,0,1,4.585-.115h-1.776a.477.477,0,0,0-.516-.356c-.286,0-.481.161-.481.38,0,.918,2.935-.046,2.935,2.389a2.154,2.154,0,0,1-2.327,2.009,2.233,2.233,0,0,1-2.43-2.044" fill="#fff"/>
  </g>
</svg>
