<svg xmlns="http://www.w3.org/2000/svg" width="513.435" height="367.885" viewBox="0 0 513.435 367.885">
  <g id="Сгруппировать_40" data-name="Сгруппировать 40" transform="translate(-1367.796 -446.81)">
    <path id="Контур_497" data-name="Контур 497" d="M1464,814.694c-1.565,0-9.624-.165-14.86-3.448l-.89-.559-.719-.766c-1.739-1.851-3.129-3.432-4.248-4.833a26.606,26.606,0,0,1-5.087-9.2,27.806,27.806,0,0,1-.934-9.855c.135-2.542.458-5.639,1.02-9.745.505-3.688,1.2-8.2,2.26-14.651,1.29-7.834,2.44-13.459,3.278-17.565,2.426-11.871,2.473-12.1-1.893-29.4a16.343,16.343,0,0,1-.34-7.317,42,42,0,0,1-7.375,1.334c-1.446.133-2.968.2-4.526.2a68.015,68.015,0,0,1-11.414-1.038,92.658,92.658,0,0,1-16.748-4.582c-4.656-1.793-8.163-3.806-10.414-5.99a15.186,15.186,0,0,1-3.672-5.487l-2.831-7.41,2.242-.929a14.178,14.178,0,0,1,12.383-10.658c.521-.051,1.029-.077,1.52-.077a18.116,18.116,0,0,1,5.539.973,13.457,13.457,0,0,0,2.985.643c.24.016.5.023.775.023a18.968,18.968,0,0,0,3.45-.34,12.847,12.847,0,0,0,2.384-.657,3.873,3.873,0,0,0-.1-.379,15.125,15.125,0,0,0-2.242-4.056c-1.669-2.316-4.463-5.448-7.7-9.075-3.41-3.825-7.2-8.074-11.5-13.417a179.706,179.706,0,0,1-14.849-21.127,92.294,92.294,0,0,1-9.068-19.858,60.646,60.646,0,0,1,2.426-41.955,57.577,57.577,0,0,1,9.187-14.765,68.885,68.885,0,0,1,11.861-10.826,79.123,79.123,0,0,1,14.234-8.36,63.3,63.3,0,0,1,17.54-5.059,64.1,64.1,0,0,1,8.43-.547,69.824,69.824,0,0,1,10.367.78,68.2,68.2,0,0,1,18.084,5.32,62.121,62.121,0,0,1,12.623,7.769,52.693,52.693,0,0,1,4.154,3.681c.589-.4,1.176-.794,1.762-1.18a101.551,101.551,0,0,1,11.925-6.768,79.144,79.144,0,0,1,16.045-5.685,83.875,83.875,0,0,1,18.708-2.184l.922,0a156.047,156.047,0,0,1,19.514,1.432c7,.889,13.868,2.028,20.513,3.129,13.175,2.188,25.432,4.228,36.381,4.377l1.227.007a94.064,94.064,0,0,0,13.347-.947A74.616,74.616,0,0,0,1632.6,530.7a44.755,44.755,0,0,0,9.2-4.223l.966-.582a88.032,88.032,0,0,0,9.31-6.956c5.289-4.409,12.108-10.663,19.33-17.284,4.088-3.751,8.246-7.564,12.141-11.07,7.529-6.779,13.365-11.8,18.923-16.271a176.66,176.66,0,0,1,19.817-14.1,96.737,96.737,0,0,1,20.058-9.222,85.216,85.216,0,0,1,19.747-3.9c2.391-.186,4.854-.282,7.32-.282a104.779,104.779,0,0,1,10.97.591,113.409,113.409,0,0,1,18.541,3.576,109.644,109.644,0,0,1,15.913,5.792,122.169,122.169,0,0,1,14.541,7.883c4.021,2.524,8.155,5.39,12.283,8.512,4.109,3.113,8.186,6.484,11.482,9.494,1.681,1.539,3.1,2.936,4.3,4.235l23.791,12.071-3.3,7.143c-3.9,8.444-10.06,9.58-14.742,9.848a60.716,60.716,0,0,1-1.837,5.878,32.5,32.5,0,0,1-4.074,7.711,42.517,42.517,0,0,1-4.009,4.621c-.454.473-1.054,1.1-1.385,1.488-.121.449-.277,1.169-.37,1.6a31.554,31.554,0,0,1-2.556,7.848,29.641,29.641,0,0,1-4.67,6.6,32.941,32.941,0,0,0-3.583,4.756,80.271,80.271,0,0,0-4.263,8.209c-1.627,3.55-3.231,7.478-4.4,10.772-.929,2.614-1.551,4.784-2.1,6.7l-.079.277.845.475-3.541,6.982a21.438,21.438,0,0,1-7.173,8.153,23.6,23.6,0,0,1-9.608,3.655,34.678,34.678,0,0,1-5.464.421,36.866,36.866,0,0,1-4.4-.263,34.066,34.066,0,0,1-9.538-2.533,32.258,32.258,0,0,1-8.6-5.557,42.821,42.821,0,0,1-5.492-5.995l-.214-.284c-.887,2.75-1.676,4.9-2.33,6.675-.184.5-.37,1.008-.538,1.478a37.218,37.218,0,0,1,5.623,11.894,32.708,32.708,0,0,1,.691,10.623c-.13,1.56-.33,3-.554,4.326,1.1.57,2.393,1.187,3.862,1.844,2.465,1.1,5.25,2.23,8.283,3.362,2.973,1.108,6.185,2.207,9.559,3.269,1.544.482,3.292,1.008,4.964,1.509,5.466,1.637,10.183,3.05,13.954,5.082a19.458,19.458,0,0,1,7.955,7.466,15.6,15.6,0,0,1,1.988,6.342c1.255,5.434,1.755,16.131-6.551,31.5a39.976,39.976,0,0,1-5.646,8.823c-2.093,2.661-5.462,6.661-7.92,9.547-3.669,4.312-7.294,8.484-9.7,11.159a38.081,38.081,0,0,1-7.921,7.261,23.509,23.509,0,0,1-10.769,3.439c-2.258.256-5.366.491-9.774.743-3.329.186-7.536.382-11.757.573-.224.014-.452.023-.68.023h0c-7.177,0-12.32-6.756-12.972-13.014-.726-7,3.7-12.732,11.026-14.266l.643-.138.657-.028c3.846-.179,7.7-.356,11.549-.575,3.508-.2,6.1-.386,7.918-.582.6-.633,1.306-1.422,1.655-1.809,2.849-3.175,6.388-7.222,9.23-10.562,3.273-3.844,3.93-6.488,3.967-7.48a5.463,5.463,0,0,0-1.325-.14c-.28,0-.568.014-.871.042a82.535,82.535,0,0,1-9.315,1.122c-1.327.079-2.668.121-4.037.121-2.107,0-4.184-.1-6.354-.3a83.113,83.113,0,0,1-11.37-1.888c-3.185-.745-7.033-1.83-11.119-3.136-3.143-1-6.244-2.079-8.97-3.11-1.232,3.557-2.6,7.615-3.981,11.757-1.313,3.937-2.792,8.437-4.363,13.289-1.276,3.944-2.491,7.75-3.555,11.18l-1.42,4.6c-1.579,5.161-2.836,9.256-4.146,12.439a101.621,101.621,0,0,0-5.413,16.441c-.442,1.779-.859,3.46-1.434,5.285-2.759,8.74-6.861,21.723-6.544,31.019.6.768,1.429,1.786,2.661,3.18,1.415,1.606,3.189,3.513,4.835,5.2l1.532,1.53c2.9,2.894,5.175,5.175,7.063,10.4a53.768,53.768,0,0,1,1.9,7.026l.091.424a9.2,9.2,0,0,1-1.506,7.755c-1.5,2.037-4.559,4.465-10.663,4.465-2.072,0-9.149-.347-13.219-4.817l-1.416-1.555-.487-2.044c-.151-.624-.268-1.064-.356-1.371-.231-.24-.51-.508-.843-.841l-2.391-2.391v-.063c-1.709-1.779-3.51-3.732-5.112-5.548-2.1-2.382-3.748-4.381-4.882-5.946a21.375,21.375,0,0,1-4.465-11.552c-.284-3.173.009-6.64.528-11.971,1.038-10.632,1.935-16.872,2.528-21,.736-5.1.736-5.1-.605-8.367-1.206-2.95-3.033-7.408-5.678-15.389-1.036-3.129-1.788-7.049-2.6-13.538-.638-5.1-1.425-12.981-2.184-20.606l-.027-.266c-.6-6.037-1.169-11.738-1.744-16.478-.035-.279-.068-.545-.1-.8-.357.067-5.068.936-5.8,1.064-4.181.724-7.81,1.252-11.422,1.66a130.42,130.42,0,0,1-13.738.852l-.675,0a110.952,110.952,0,0,1-14.019-.9,135.194,135.194,0,0,1-15.235-2.852c-4-.982-8.206-2.2-12.266-3.378-2.03-.589-4.048-1.176-5.916-1.688-.084,1.951-.179,3.927-.3,5.524-.24,3.2-.633,6.474-1.2,10.008-.549,3.411-1.22,6.782-2.047,10.295-.512,2.179-1.274,5.11-2.021,7.971-1,3.848-1.906,7.336-2.4,10.008-.4,2.163-.58,4.249-.738,6.09a54.508,54.508,0,0,1-.736,5.923c-3.813,19.779-1.061,26.126,7.1,44.96l1.241,2.87c1.083,2.51,1.788,4.035,2.247,4.954.807.307,1.795.673,2.826,1.055,3.257,1.208,6.926,2.57,10.043,4.055a34.925,34.925,0,0,1,7.484,4.691,29.957,29.957,0,0,1,5.562,6.1c1.706,2.454,4.221,7.056,5.858,10.141a8.837,8.837,0,0,1,1.66,8.511c-1.02,3.01-3.895,6.6-11.81,6.6-1.811,0-8.118-.233-13.307-3.208l-2.051-1.178-1.1-2.091a29.781,29.781,0,0,0-1.795-3.061,4.344,4.344,0,0,0-.563-.712,9.7,9.7,0,0,0-1.746-.971c-1.976-.941-5.064-2.086-7.787-3.1-1.634-.608-3.157-1.173-4.684-1.793a20.715,20.715,0,0,1-9.811-7.252c-2.184-2.868-4.016-6.668-6.26-11.866-1.739-4.025-4.293-10.237-8.016-19.5a76.44,76.44,0,0,0-11.058-14.278,52.86,52.86,0,0,1-11.04-15.757,30.362,30.362,0,0,1-2.379-6.616,29.88,29.88,0,0,1-.649-8.9,79.311,79.311,0,0,1,1.746-10.535c.356-1.7.731-3.483,1.131-5.741.494-2.787.878-5.553,1.106-8a66.745,66.745,0,0,0,.326-6.8,21.026,21.026,0,0,0-.386-4.184,8.335,8.335,0,0,0-.805-2.258,19.97,19.97,0,0,0-2.182-3.113c-.322-.4-.675-.8-1.052-1.227-.246.2-.5.407-.756.622a62.555,62.555,0,0,0-5.182,4.859c-4,4.223-7.957,9.7-12.143,15.493l-.759,1.052c-2.61,3.611-4.836,6.654-7.226,9.8-2.829,3.725-5.28,6.765-7.489,9.294a123.081,123.081,0,0,1-10.626,10.3c-4.7,4.209-9.561,8.56-12.076,12.558-2.945,4.684-7.326,14.3-11.326,43.526-.449,3.292-.712,5.741-.805,7.487-.007.165-.016.31-.019.438l.045.056c2,2.493,6.286,6.756,10.148,10.555l.606.6.47.705a8.967,8.967,0,0,1,.519,9.322C1473.478,814.694,1466.347,814.694,1464,814.694Zm212.929-172.87a22.237,22.237,0,0,1,8.84,1.744,20.646,20.646,0,0,1,6.149,4.111,18.168,18.168,0,0,1,5.219,8.781,71.344,71.344,0,0,1,1.986,11.17c.477,3.911,1.108,10.241,1.776,16.944l.028.275c.356,3.585.715,7.178,1.078,10.616.978-3.131,2.079-6.582,3.25-10.2,1.253-3.865,2.782-8.5,4.447-13.505,1.457-4.365,2.9-8.628,4.186-12.341l.458-1.325c4.144-11.952,4.577-13.2,10.341-19.563,1.956-2.158,4.636-5.115,8.812-10.255l.968-1.19,1.334-.759a15.77,15.77,0,0,1,7.75-2.118,14.074,14.074,0,0,1,7.261,2.021l1.262-6.29a38.716,38.716,0,0,0,.654-4.1,7.641,7.641,0,0,0,.014-1.876,23.312,23.312,0,0,0-1.963-3.35c-.687-1.052-1.32-2.035-1.916-3.092a21.879,21.879,0,0,1-2.16-17.347c.484-1.788,1.1-3.466,1.811-5.408.733-2,1.516-4.132,2.349-6.8.948-3.052,1.728-6.018,2.307-8.814a62.381,62.381,0,0,0,1.313-9.752c.284-6.116-.633-12.751-1.369-18.085l-.256-1.867c-.521-3.874-.787-6.456-.892-8.642a27.545,27.545,0,0,1,.9-9.261,18.561,18.561,0,0,1,6.857-9.876,44.472,44.472,0,0,1,6.938-4.088c3.42-1.751,6.135-3.1,8.3-4.128a83.863,83.863,0,0,1,8.94-3.769,21.455,21.455,0,0,1,6.835-1.206,14.868,14.868,0,0,1,9.343,3.162c2.57,2.032,8.134,7.841,4.249,17.822a45.834,45.834,0,0,1-3.162,6.237l-.221.386c-.531.929-1.083,1.891-1.479,2.645a23.761,23.761,0,0,0-1.36,2.994c-.109.31-.179.538-.223.7a32.621,32.621,0,0,0,1.511,3.45l1.3,2.659a82.779,82.779,0,0,1,5.592,12.944,25.529,25.529,0,0,1,.952,10.411,21.936,21.936,0,0,1-.6,3.008c1.341-3.63,3.071-7.8,4.842-11.664a106.82,106.82,0,0,1,5.811-11.186,59.481,59.481,0,0,1,6.253-8.344c.3-.349.578-.649.8-.92.1-.412.221-.952.308-1.357a28.136,28.136,0,0,1,8.8-16.273,22.722,22.722,0,0,0,1.572-1.73,5.433,5.433,0,0,0,.624-1.28c.4-1.057.766-2.386,1.075-3.55.275-1.038.538-2.049.694-2.908a37.057,37.057,0,0,0-2.794-2.768c-2.519-2.3-5.908-5.082-9.538-7.832-3.592-2.717-7.068-5.133-10.332-7.185a94.226,94.226,0,0,0-11.254-6.1,82.875,82.875,0,0,0-12-4.37,85.907,85.907,0,0,0-14.029-2.712,75.47,75.47,0,0,0-7.937-.428c-1.788,0-3.569.068-5.3.2a58.035,58.035,0,0,0-13.477,2.635,69.533,69.533,0,0,0-14.383,6.651,150.83,150.83,0,0,0-16.7,11.938c-5.042,4.063-10.518,8.777-17.752,15.291-4.3,3.869-8.146,7.4-11.845,10.793-7.3,6.693-14.19,13.019-20.45,18.234-2.375,1.977-4.535,3.69-6.581,5.208l.242.363-7.317,4.416a71.89,71.89,0,0,1-14.725,6.726,101.89,101.89,0,0,1-17.67,4.111,120.869,120.869,0,0,1-17.149,1.2c-.556,0-1.115,0-1.674-.012-13.1-.177-26.3-2.365-40.271-4.684l-.249-.039c-6.214-1.034-13.251-2.2-19.479-3a129.8,129.8,0,0,0-16.071-1.215l-.67,0a56.659,56.659,0,0,0-12.653,1.483,52.085,52.085,0,0,0-10.518,3.748,74.224,74.224,0,0,0-8.681,4.938,99.1,99.1,0,0,0-9.04,6.724,45.356,45.356,0,0,0-4.6,4.309,27.64,27.64,0,0,0-2.936,3.951,31.047,31.047,0,0,0-2.786,5.424,26.681,26.681,0,0,0-1.662,7.143,56.263,56.263,0,0,0,.174,10.646,85.674,85.674,0,0,0,2.265,12.746,136.606,136.606,0,0,0,4.375,13.163c1.248,3.374,2.53,6.845,3.792,10.914a139.727,139.727,0,0,1,3.751,15.109,108.032,108.032,0,0,1,1.825,14.478,62.029,62.029,0,0,1-.535,12.2c.4-.552,3.655-5.07,4.461-6.2,6.032-8.442,10.8-15.107,19.91-22.329l2.228-1.765h.056c2.233-1.713,4.23-3.157,6.062-4.379l6.775-4.521.17.254.505-.293c2.382-1.4,4.626-2.71,6.821-4.233a32.416,32.416,0,0,0,5.042-4.193,21.353,21.353,0,0,0,3.729-5.231,48.879,48.879,0,0,0,3.225-9.077c1.08-4,1.986-8.272,2.945-12.8l.312-1.474.82-1.269c3.1-4.8,7.713-7.552,12.651-7.552,7.436,0,13.263,6.277,13.27,14.29v.857l-.177.84c-1,4.7-2.028,9.568-3.287,14.239-.687,2.54-1.406,4.873-2.168,7.026.878.3,1.737.573,2.594.822,6.025,1.751,22.1,5.643,32.737,8.218,3.153.764,5.913,1.432,7.946,1.93a108.1,108.1,0,0,0,11.734,2.247l.381.044a83.712,83.712,0,0,0,10.609.68l.505,0a103.274,103.274,0,0,0,10.826-.7c2.973-.338,6.181-.808,9.808-1.439,2.46-.426,3.459-.612,4.386-.782A64.236,64.236,0,0,1,1676.934,641.824Zm-120.821,15.414a46.082,46.082,0,0,1,4.4,6.63,35.652,35.652,0,0,1,3.473,9.466q.15.705.277,1.434c.317-2.142.549-4.253.71-6.419s.233-3.853.3-5.452c.068-1.551.131-3.071.226-4.547-2.624-.885-5.029-1.832-7.28-2.8Q1557.205,656.4,1556.114,657.239ZM1419.366,554.6a51.519,51.519,0,0,0-9.226,5.459,42.166,42.166,0,0,0-7.226,6.521,30.372,30.372,0,0,0-4.868,7.811,33.143,33.143,0,0,0-1.3,23.106,65.086,65.086,0,0,0,6.407,13.841,152.745,152.745,0,0,0,12.588,17.877c3.723,4.621,7.387,8.73,10.619,12.353a144.145,144.145,0,0,1,9.464,11.322,41.862,41.862,0,0,1,6.167,11.8c.166.519.317,1.043.452,1.562.005-.044.007-.091.01-.135a48.879,48.879,0,0,0-1.279-13.529,99.436,99.436,0,0,0-5.61-16.45c-2.465-5.816-5.659-12.353-8.474-18.117l-.2-.4c-6.419-13.133-12.465-25.511-13.91-36.621a36.952,36.952,0,0,1,1.578-16.986,34.209,34.209,0,0,1,5.122-9.561C1419.578,554.507,1419.471,554.556,1419.366,554.6Zm337.661,91.01c3.171,1.013,6.3,1.888,9.054,2.533,2.156.505,4.1.873,5.906,1.113a80.854,80.854,0,0,1-8.588-4.419,34.049,34.049,0,0,1-6.258-4.714,14.133,14.133,0,0,1-1.488,4.212l-.389.7C1755.856,645.235,1756.445,645.428,1757.027,645.612Zm-307.622-77.923a11.716,11.716,0,0,0-4.06.645,8.486,8.486,0,0,0-2.812,1.709,7.123,7.123,0,0,0-2.023,2.933,9.839,9.839,0,0,0-.3,4.486c.626,4.824,3.692,12.029,7.329,19.719a72.622,72.622,0,0,1,.277-8.972,54.706,54.706,0,0,1,3.376-14.4,54.05,54.05,0,0,1,2.552-5.636,25.638,25.638,0,0,0-4.33-.484Zm352.193,6.249a2.743,2.743,0,0,0,.34.182,6.451,6.451,0,0,0,1.6.394c.538-1.877,1.16-4.039,2.086-6.761a22.307,22.307,0,0,1-1.7,3.148A24.366,24.366,0,0,1,1801.6,573.937Z" transform="translate(0 0)" fill="#fff" fill-rule="evenodd"/>
    <path id="Контур_498" data-name="Контур 498" d="M1783.1,556.309l.068.074-1.025.917c-.682.612-1.441,1.166-2.177,1.711l-.037.028c-2.8,2.081-4.854,3.683-5.068,7.448a10.8,10.8,0,0,0,1.178,5.112,27.47,27.47,0,0,0,3.087,4.915,33.4,33.4,0,0,0,4.265,4.675,22.679,22.679,0,0,0,6.056,3.932,24.625,24.625,0,0,0,6.867,1.809,26.424,26.424,0,0,0,7.21-.1,14.3,14.3,0,0,0,5.806-2.153,11.663,11.663,0,0,0,3.65-3.923l.338-.661a32.877,32.877,0,0,0,2.114-5.99c.7-2.456,1.427-4.88,2.284-7.289,1.387-3.906,2.994-7.79,4.721-11.557a86.371,86.371,0,0,1,4.81-9.233,44.451,44.451,0,0,1,4.51-6.013,21.936,21.936,0,0,0,3.336-4.6,23.055,23.055,0,0,0,1.765-5.611,17.052,17.052,0,0,1,1.161-3.937,17.4,17.4,0,0,1,3.015-3.706,34.839,34.839,0,0,0,3.192-3.639,23.409,23.409,0,0,0,2.873-5.49,54.473,54.473,0,0,0,1.627-5.278,49.31,49.31,0,0,0,1.176-5.215l.158-1.038,1.046-.119c2.02-.226,3.988-.261,6.009-.354a10.581,10.581,0,0,0,3.7-.643,5.781,5.781,0,0,0,2.516-2.524l-16.925-8.591-.245-.123-.179-.21a52.2,52.2,0,0,0-4.614-4.663c-3.434-3.141-7.093-6.123-10.8-8.931-3.748-2.836-7.62-5.541-11.6-8.044a113.621,113.621,0,0,0-13.41-7.273,101.149,101.149,0,0,0-14.541-5.294,103.647,103.647,0,0,0-16.976-3.273,90.209,90.209,0,0,0-16.536-.286,76.456,76.456,0,0,0-17.563,3.469,87.794,87.794,0,0,0-18.094,8.332,166.791,166.791,0,0,0-18.734,13.349c-6.344,5.1-12.471,10.479-18.52,15.927-4.016,3.613-8,7.268-11.978,10.921-6.491,5.953-13.01,12.036-19.775,17.673a92.513,92.513,0,0,1-11.435,8.383l-.326.2h-.025a54.906,54.906,0,0,1-10.772,4.9,84.249,84.249,0,0,1-14.574,3.355,103.271,103.271,0,0,1-16.064,1.034c-12.483-.168-25.316-2.426-37.6-4.468l-.217-.033c-6.7-1.113-13.41-2.221-20.154-3.08a142.38,142.38,0,0,0-19.144-1.353,74.991,74.991,0,0,0-16.6,1.928,70.682,70.682,0,0,0-14.143,5.012,92.209,92.209,0,0,0-10.8,6.134c-2.594,1.7-5.115,3.518-7.559,5.424l-1.255.98-.784-1.385c-1.639-2.892-4.922-5.986-7.494-8.041a52.142,52.142,0,0,0-10.658-6.556,59.47,59.47,0,0,0-31.642-4.763,53.611,53.611,0,0,0-14.893,4.307,69.136,69.136,0,0,0-12.511,7.354,59.775,59.775,0,0,0-10.246,9.329,48.546,48.546,0,0,0-7.685,12.362,51.094,51.094,0,0,0-2.046,35.405,82.78,82.78,0,0,0,8.151,17.768,169.685,169.685,0,0,0,14.064,19.994c3.6,4.475,7.368,8.763,11.188,13.049a126.674,126.674,0,0,1,8.321,9.852,24.611,24.611,0,0,1,3.594,6.745,11.4,11.4,0,0,1,.517,4.866,8.541,8.541,0,0,1-1.434,3.851,9.027,9.027,0,0,1-3.2,2.78,19.631,19.631,0,0,1-5.459,1.786,26.823,26.823,0,0,1-6.642.466,22.3,22.3,0,0,1-5.108-1.029,8.24,8.24,0,0,0-3.38-.538,4.55,4.55,0,0,0-2.868,1.36l0,0a4.17,4.17,0,0,0-.945,4.749l.123.319a6.035,6.035,0,0,0,1.271,1.73c1.7,1.655,5.022,3.1,7.2,3.932a80.07,80.07,0,0,0,14.939,4.084,52.269,52.269,0,0,0,13.454.743,28.838,28.838,0,0,0,13.913-4.842,27.8,27.8,0,0,0,9.336-11.221,43.515,43.515,0,0,0,3.762-16.029,66.873,66.873,0,0,0-1.7-18.466,117.093,117.093,0,0,0-6.591-19.467c-2.733-6.442-5.773-12.728-8.844-19.013l-.207-.419c-2.712-5.55-5.469-11.128-7.864-16.823-1.851-4.4-3.783-9.478-4.4-14.222a19.282,19.282,0,0,1,.745-8.833,16.656,16.656,0,0,1,4.628-6.88,18.025,18.025,0,0,1,5.953-3.6,21.147,21.147,0,0,1,7.4-1.225c4.316.033,8.926,1.215,13.1,2.265,1.024.258,2.051.517,3.082.759.5.116,1.015.23,1.525.333l2.237.454-1.448,1.762a48.19,48.19,0,0,0-3.555,4.994,48.806,48.806,0,0,0-4.339,8.523,44.991,44.991,0,0,0-2.782,11.887,72.628,72.628,0,0,0,.177,14.12,102.583,102.583,0,0,0,2.754,15.475,153.469,153.469,0,0,0,4.884,14.865c1.225,3.311,2.454,6.626,3.5,10a120.192,120.192,0,0,1,3.262,13.144,88.143,88.143,0,0,1,1.539,12.022,44.527,44.527,0,0,1-.431,9.18,38.377,38.377,0,0,1-1.867,7.061,40.1,40.1,0,0,1-2.733,6.032l-.687,1.22-.035-.023a30.9,30.9,0,0,1-2.864,3.907,43.8,43.8,0,0,1-4.535,4.453c-1.394,1.2-2.831,2.344-4.3,3.455l-.3.226c-1.365,1.034-3.839,2.75-4.526,4.358a5.562,5.562,0,0,0-.065,3.348l.093.37c1.66,6.582,4.084,15.014,3.834,21.842a65.531,65.531,0,0,1-1.578,10.481c-1.255,6.174-2.454,12.3-3.478,18.52-.789,4.784-1.565,9.585-2.221,14.39-.4,2.961-.785,5.981-.948,8.968a19.712,19.712,0,0,0,.44,6.246l.107.363a17.717,17.717,0,0,0,3.4,5.986c1.138,1.422,2.374,2.789,3.622,4.121a18,18,0,0,0,6.19,1.688c1.164.142,5.457.417,7.1-.156a129.5,129.5,0,0,1-10.374-10.875,9.951,9.951,0,0,1-1.888-3.143l-.058-.191v-.037a12.748,12.748,0,0,1-.156-3.581c.147-2.757.505-5.546.878-8.276,1.457-10.658,3.268-21.828,6.307-32.167a60.217,60.217,0,0,1,6.4-15.146c3.283-5.217,8.519-9.862,13.091-13.959a120.465,120.465,0,0,0,10.5-10.092c2.47-2.829,4.806-5.8,7.075-8.786,2.409-3.169,4.756-6.384,7.086-9.61l.745-1.029c4.055-5.613,8.2-11.463,12.967-16.494a71.2,71.2,0,0,1,5.976-5.6,62.2,62.2,0,0,1,6.355-4.749l1.4-.892,1.008.813a37.067,37.067,0,0,1,2.8,2.6c1.3,1.3,2.565,2.656,3.737,4.081a29.111,29.111,0,0,1,3.217,4.666,17.846,17.846,0,0,1,1.728,4.759,30.771,30.771,0,0,1,.6,6.078,75.118,75.118,0,0,1-.37,7.795c-.277,2.936-.7,5.871-1.211,8.777-.359,2.023-.769,4.028-1.19,6.039a70.1,70.1,0,0,0-1.564,9.24,20.531,20.531,0,0,0,.431,6.095,21.035,21.035,0,0,0,1.657,4.575,44.863,44.863,0,0,0,7.683,11.58c1.993,2.149,4.028,4.172,5.927,6.418a98.919,98.919,0,0,1,8.388,11.78l.063.1.044.112c2.675,6.658,5.348,13.359,8.192,19.947,1.346,3.115,3.036,7.161,5.1,9.871a11.477,11.477,0,0,0,5.8,4.188c1.465.594,2.945,1.141,4.424,1.69,2.849,1.057,5.823,2.118,8.565,3.424a17.875,17.875,0,0,1,3.755,2.258,12.76,12.76,0,0,1,2.279,2.579,36.914,36.914,0,0,1,2.211,3.7,15.2,15.2,0,0,0,3.8,1.285,22.784,22.784,0,0,0,6.656.328,98.963,98.963,0,0,0-5.762-10.118,20.734,20.734,0,0,0-3.83-4.216,25.969,25.969,0,0,0-5.495-3.42c-2.98-1.42-6.158-2.573-9.254-3.72-1.4-.519-2.812-1.029-4.193-1.59a4.969,4.969,0,0,1-2.286-1.49c-1.537-2.021-3.027-5.753-4.037-8.092-9.242-21.4-13.533-29.65-8.951-53.413a47.44,47.44,0,0,0,.6-4.933c.2-2.356.431-4.679.861-7.007.662-3.576,1.637-7.164,2.554-10.681.668-2.577,1.353-5.157,1.963-7.746q1.125-4.784,1.914-9.636c.491-3.047.88-6.114,1.108-9.191.151-2.016.226-4.044.314-6.06a68.258,68.258,0,0,1,.5-7.112l-.054-.014.138-.659a1.4,1.4,0,0,1,.544-1.942c.776-.468,2.587-.093,3.436.037a110.461,110.461,0,0,1,13.317,3.406c4.006,1.164,8.02,2.335,12.069,3.331a125.328,125.328,0,0,0,14.155,2.652,102.555,102.555,0,0,0,13.442.817,120.473,120.473,0,0,0,12.725-.792c3.639-.412,7.257-.954,10.863-1.581,1.539-.268,3.076-.561,4.612-.845a48.39,48.39,0,0,1,8-1.145,4.509,4.509,0,0,1,1.748.275,3.047,3.047,0,0,1,.882.612,1.374,1.374,0,0,1,.422,1,56.019,56.019,0,0,1,1.322,8.083c.68,5.606,1.227,11.238,1.785,16.86.68,6.812,1.315,13.666,2.165,20.457a64.611,64.611,0,0,0,2.191,11.722c1.571,4.745,3.259,9.405,5.147,14.031a29.421,29.421,0,0,1,2.1,6.081c.366,2.389-.221,5.5-.566,7.883-.99,6.891-1.816,13.75-2.491,20.68a58.93,58.93,0,0,0-.521,10.195,11.962,11.962,0,0,0,2.689,6.807c1.311,1.809,2.829,3.56,4.307,5.234,1.925,2.181,3.916,4.344,5.97,6.407l1.527,1.541v.016a9.435,9.435,0,0,1,2.5,3.406,24.193,24.193,0,0,1,.736,2.549,9.464,9.464,0,0,0,4.071,1.362c.848.109,3.939.263,4.759-.368h0l-.133-.631a43.946,43.946,0,0,0-1.546-5.774,14.149,14.149,0,0,0-3.869-5.93l-.009.014-2.049-2.058c-1.953-1.965-3.853-4.016-5.685-6.09-1.3-1.478-2.617-3.015-3.771-4.61a5.066,5.066,0,0,1-1.152-2.591c-1.008-11.242,3.48-25.471,6.863-36.183q.244-.772.458-1.551c.738-2.659,1.325-5.35,2.083-8.011a120.28,120.28,0,0,1,4.584-12.926c1.521-3.688,2.671-7.8,3.851-11.622l1.422-4.6c1.167-3.774,2.375-7.536,3.593-11.3q2.165-6.691,4.384-13.363,2.029-6.077,4.111-12.132c.929-2.675,1.874-5.348,2.889-7.99l.538-1.4,1.344.656q2.6,1.264,5.289,2.337c3.508,1.411,7.127,2.663,10.728,3.811,3.42,1.092,6.9,2.119,10.4,2.938a74.456,74.456,0,0,0,10.069,1.674,58.456,58.456,0,0,0,8.938.156,75.072,75.072,0,0,0,8.532-1.048l.046-.009.047,0c4.067-.445,8.662.3,11.245,3.8a10.5,10.5,0,0,1,1.4,8.661,26.272,26.272,0,0,1-5.885,10.751q-4.631,5.441-9.408,10.758a26,26,0,0,1-4.132,4.09,8.178,8.178,0,0,1-3.206.78c-2.906.331-5.867.5-8.784.668-3.844.217-7.687.393-11.531.57-6.519,1.453-2.17,8.588.237,8.388,3.916-.179,7.834-.354,11.75-.575,3.066-.172,6.186-.352,9.238-.7a14.535,14.535,0,0,0,6.766-2.035,30.7,30.7,0,0,0,5.908-5.567c3.234-3.6,6.4-7.28,9.534-10.965,2.591-3.043,5.21-6.116,7.683-9.259a30.514,30.514,0,0,0,4.491-6.966l.032-.077.04-.072c3.148-5.748,5.818-12.472,6.242-19.081a22.845,22.845,0,0,0-.17-4.9c-.079-.524-.412-1.644-.422-2.088a6.076,6.076,0,0,0-.815-2.9,10.285,10.285,0,0,0-4.179-3.755c-3.527-1.9-8.307-3.187-12.157-4.34-1.7-.51-3.4-1.017-5.1-1.551q-5.05-1.589-10.023-3.427c-2.975-1.108-5.937-2.293-8.84-3.588a63.726,63.726,0,0,1-6.877-3.487,14.342,14.342,0,0,1-3.21-2.431c-.65-.747-.023-2.517.144-3.352l.221-1.1h.019a50.847,50.847,0,0,0,.78-5.313,23.607,23.607,0,0,0-.456-7.566,28.488,28.488,0,0,0-4.363-8.97c-.442-.673-.9-1.357-1.3-2.06a5.307,5.307,0,0,1-.736-1.9,5.65,5.65,0,0,1,.266-2c.359-1.327.88-2.67,1.353-3.96.922-2.51,1.807-5.01,2.6-7.564,1.075-3.455,2-6.961,2.738-10.5a80.142,80.142,0,0,0,1.665-12.609c.335-7.2-.543-14.227-1.516-21.339l-.249-1.8c-.319-2.335-.64-4.738-.752-7.091a11.231,11.231,0,0,1,.189-3.352,1.364,1.364,0,0,1,.84-.908,33.082,33.082,0,0,1,3.911-2.172q2.951-1.512,5.934-2.964l3.52-1.706-1.681,3.532a35.442,35.442,0,0,0-1.388,3.3,21.165,21.165,0,0,0-1.276,5.967,16.969,16.969,0,0,0,.829,6.083,43.7,43.7,0,0,0,2.5,5.986c.449.917.927,1.825,1.385,2.74a65.052,65.052,0,0,1,4.437,10.008,8.006,8.006,0,0,1,.389,3.143,3.635,3.635,0,0,1-.582,1.525A5.515,5.515,0,0,1,1783.1,556.309Z" transform="translate(5.574 5.446)" fill="#6f00ff" fill-rule="evenodd"/>
    <g id="Сгруппировать_30" data-name="Сгруппировать 30" transform="translate(1377.566 456.356)">
      <path id="Контур_499" data-name="Контур 499" d="M1584.317,479.509q-1.948,1.694-3.93,3.343a92.5,92.5,0,0,1-11.436,8.383l-.326.2h-.025a54.9,54.9,0,0,1-10.772,4.9,84.245,84.245,0,0,1-14.574,3.355,103.268,103.268,0,0,1-16.064,1.034c-12.483-.168-25.316-2.426-37.6-4.468l-.217-.033c-6.7-1.113-13.41-2.221-20.154-3.08a142.4,142.4,0,0,0-19.144-1.353,74.991,74.991,0,0,0-16.6,1.928,69.09,69.09,0,0,0-6.935,2.035,14.785,14.785,0,0,0,5.843,4.314c4.8,2.188,11.047,3.117,19.065,6.377s17.817,8.842,29.248,12.984a114.8,114.8,0,0,0,36.593,6.982,75.656,75.656,0,0,0,32.416-6.516,72.431,72.431,0,0,0,22.187-16.429c5.811-6.141,10.23-12.378,11.957-17.5A10.6,10.6,0,0,0,1584.317,479.509Z" transform="translate(-1299.539 -412.929)" fill="#ffdb29" fill-rule="evenodd"/>
      <g id="Сгруппировать_29" data-name="Сгруппировать 29">
        <path id="Контур_500" data-name="Контур 500" d="M1622.837,528.19a11.091,11.091,0,0,1,.8-2.335,17.4,17.4,0,0,1,3.015-3.706,34.825,34.825,0,0,0,3.192-3.639,23.4,23.4,0,0,0,2.873-5.49,54.473,54.473,0,0,0,1.627-5.278,49.31,49.31,0,0,0,1.176-5.215l.158-1.038,1.046-.119c.729-.082,1.45-.137,2.17-.182a44.23,44.23,0,0,0,1.017-7.927l-7.883-4-.245-.123-.179-.21a52.229,52.229,0,0,0-4.614-4.663c-3.434-3.141-7.094-6.123-10.8-8.931-3.748-2.836-7.62-5.541-11.6-8.044a113.612,113.612,0,0,0-13.41-7.273,101.153,101.153,0,0,0-14.541-5.294,103.651,103.651,0,0,0-16.977-3.273,90.209,90.209,0,0,0-16.536-.286,76.517,76.517,0,0,0-9.71,1.385,6.229,6.229,0,0,0,2.738,2.847c4,2.372,10.984,2.931,18.383,4.468a78.28,78.28,0,0,1,22.571,8.188,100.57,100.57,0,0,1,20.152,15.684c5.911,5.771,10.844,11.543,13.03,15.638s1.63,6.516-.231,8.19-5.029,2.607-8.1,3.259-6.05,1.022-8.423,1.72-3.962,1.76-4.563,4.235c-6.267,25.872,13.282,29.08,28.251,15.126C1618.619,530.6,1620.83,529.794,1622.837,528.19Z" transform="translate(-1157.612 -450.91)" fill="#ffdb29" fill-rule="evenodd"/>
        <path id="Контур_501" data-name="Контур 501" d="M1537.7,584.139a56.44,56.44,0,0,0-12.471,20.152c-3.583,9.727-6.374,23.688-8.609,35.927s-3.909,22.757-4.514,29.646-.14,10.146.745,11.587,2.188,1.071,4.7-5.3,6.237-18.757,10.425-30.251,8.842-22.107,13.635-30.065,9.371-13.8,13.868-16.38c13.37-7.666,15.943-18.01,13.868-41.559a54.4,54.4,0,0,1,1.676-18.851c1.72-6.374,4.235-12.611,4.931-20.382s-.417-17.079-.417-23.83,1.115-10.933,2.978-13.822,4.468-4.465,3.49-4.558-5.538,1.3-9.494,3.4a27.383,27.383,0,0,0-9.724,8.33c-2.421,3.446-3.911,7.541-4.47,13.123s-.187,12.66-1.953,21.083-5.678,18.2-6.842,26.433.419,14.939-1.118,20.478S1542.213,579.206,1537.7,584.139Z" transform="translate(-1186.278 -416.999)" fill="#ffdb29" fill-rule="evenodd"/>
        <path id="Контур_502" data-name="Контур 502" d="M1496.492,514.306c-2.7-.324-6.514.512-10.751,2.142s-8.886,4.049-11.54,7.306-3.3,7.354-4.375,11.543a36.119,36.119,0,0,1-4.933,11.82c-2.375,3.352-5.63,5.771-9.448,8.472s-8.19,5.678-12.239,10.749-7.773,12.239-11.682,19.686-8.006,15.172-10.379,19.733-3.024,5.955-2.745,6.654,1.488.7,4.98-2.326a174.7,174.7,0,0,0,14.241-14.8c4.98-5.725,9.168-11.124,14.288-16.1a179.6,179.6,0,0,1,17.5-14.285c6.33-4.747,12.937-9.68,17.451-15.079s6.935-11.263,9.168-16.709,4.281-10.472,4.514-13.729S1499.192,514.632,1496.492,514.306Z" transform="translate(-1310.439 -366.806)" fill="#ffdb29" fill-rule="evenodd"/>
        <path id="Контур_503" data-name="Контур 503" d="M1463.963,495.873l-.058-.047a52.142,52.142,0,0,0-10.658-6.556,59.471,59.471,0,0,0-31.642-4.763,53.609,53.609,0,0,0-14.893,4.307,69.139,69.139,0,0,0-12.511,7.354,59.773,59.773,0,0,0-10.246,9.329,48.546,48.546,0,0,0-7.685,12.362,51.094,51.094,0,0,0-2.046,35.405,82.777,82.777,0,0,0,8.151,17.768,169.685,169.685,0,0,0,14.064,19.994c3.6,4.475,7.368,8.763,11.188,13.049a126.674,126.674,0,0,1,8.321,9.852,24.611,24.611,0,0,1,3.594,6.745,11.4,11.4,0,0,1,.517,4.866,8.54,8.54,0,0,1-1.434,3.851,9.028,9.028,0,0,1-3.2,2.78,19.631,19.631,0,0,1-5.459,1.786,26.826,26.826,0,0,1-6.642.466,22.3,22.3,0,0,1-5.108-1.029,8.24,8.24,0,0,0-3.38-.538,4.989,4.989,0,0,0-1.117.242q1.519.981,2.891,1.835c9.448,5.911,12.984,7.494,16.846,6.886s8.051-3.4,11.17-6.188a23.228,23.228,0,0,0,6.656-9.447,31.327,31.327,0,0,0,1.955-13.822c-.468-5.024-2.328-10.143-7.4-19.779s-13.356-23.781-18.429-34.437-6.935-17.824-7.028-25.225,1.583-15.032,6.051-21.174a33.085,33.085,0,0,1,19.779-12.474c8.051-1.676,16.893-.372,23.176.512s10.006,1.35,12.611-1.022A8.043,8.043,0,0,0,1463.963,495.873Z" transform="translate(-1371.992 -406.913)" fill="#ffdb29" fill-rule="evenodd"/>
      </g>
    </g>
    <path id="Контур_504" data-name="Контур 504" d="M1473.274,547.966c2.277-1.774,4.854-3.655,7.652-5.49a93.529,93.529,0,0,1,10.956-6.228,71.6,71.6,0,0,1,14.418-5.108,75.893,75.893,0,0,1,16.9-1.963,144.8,144.8,0,0,1,19.332,1.362c6.822.868,13.561,1.984,20.206,3.087l.2.028c13.121,2.181,25.872,4.3,37.41,4.456a102.868,102.868,0,0,0,15.85-1.022,83.087,83.087,0,0,0,14.334-3.3,52.693,52.693,0,0,0,10.831-4.973h.021a91.333,91.333,0,0,0,11.265-8.26c5.464-4.554,12.3-10.823,19.724-17.631,3.972-3.643,8.109-7.438,11.988-10.93,6-5.4,12.243-10.879,18.578-15.975a170.362,170.362,0,0,1,18.89-13.459A88.914,88.914,0,0,1,1740.2,454.1a77.373,77.373,0,0,1,17.878-3.532,91.849,91.849,0,0,1,16.79.289,105.506,105.506,0,0,1,17.2,3.318,102.12,102.12,0,0,1,14.739,5.366,114.305,114.305,0,0,1,13.573,7.361c4.093,2.57,8.092,5.38,11.7,8.109,4.169,3.157,7.992,6.353,10.9,9.012a54.878,54.878,0,0,1,4.733,4.787l18.152,9.212c-2.975,6.435-6.383,4.642-13.924,5.487a50.654,50.654,0,0,1-1.208,5.359,55.014,55.014,0,0,1-1.669,5.41,24.571,24.571,0,0,1-3.045,5.809,35.469,35.469,0,0,1-3.315,3.788,10.068,10.068,0,0,0-3.823,6.984,23.856,23.856,0,0,1-1.879,5.93,22.356,22.356,0,0,1-3.527,4.889,40.78,40.78,0,0,0-4.377,5.834,88.021,88.021,0,0,0-4.73,9.087c-1.786,3.895-3.464,8.037-4.675,11.443-1.017,2.863-1.7,5.259-2.26,7.208a33.176,33.176,0,0,1-2.207,6.237l.016.009a13.216,13.216,0,0,1-4.461,5.092,15.623,15.623,0,0,1-6.353,2.368,28.05,28.05,0,0,1-7.594.114,26.161,26.161,0,0,1-7.25-1.914,24.087,24.087,0,0,1-6.425-4.167,34.932,34.932,0,0,1-4.442-4.866,29.105,29.105,0,0,1-3.239-5.166,12.048,12.048,0,0,1-1.306-5.776c.259-4.491,2.887-6.442,5.62-8.467l.038-.028c.754-.559,1.513-1.124,2.079-1.632l-.009-.012a6.82,6.82,0,0,0,1.18-1.3,2.293,2.293,0,0,0,.372-.955,6.571,6.571,0,0,0-.344-2.582,71.083,71.083,0,0,0-4.349-9.78c-.91-1.814-1.066-2.088-1.387-2.752a44.282,44.282,0,0,1-2.58-6.179,18.191,18.191,0,0,1-.889-6.563,22.542,22.542,0,0,1,1.353-6.356,36.785,36.785,0,0,1,1.443-3.432c-2.265,1.1-4.307,2.13-5.909,2.95a30.285,30.285,0,0,0-3.988,2.254c-.067.049-.058-.058-.072,0a10.084,10.084,0,0,0-.135,2.9c.086,1.807.356,4.111.74,6.97l.247,1.807c.834,6,1.9,13.7,1.532,21.586a82.05,82.05,0,0,1-1.693,12.826c-.835,4.007-1.842,7.641-2.77,10.628-1,3.206-1.892,5.636-2.624,7.629-.584,1.59-1.054,2.873-1.317,3.844a4.518,4.518,0,0,0-.226,1.49,4.1,4.1,0,0,0,.568,1.38c.293.522.754,1.227,1.248,1.984a29.7,29.7,0,0,1,4.549,9.4,25.021,25.021,0,0,1,.491,8.006,54.824,54.824,0,0,1-.968,6.3l-.051.266h-.021c-.279,1.387-.468,2.165-.456,2.179a13.07,13.07,0,0,0,2.887,2.158,62.762,62.762,0,0,0,6.726,3.406c2.663,1.192,5.652,2.4,8.758,3.557s6.514,2.321,9.955,3.4c1.583.5,3.369,1.031,5.078,1.544,4.987,1.495,9.385,2.812,12.416,4.449a11.5,11.5,0,0,1,4.724,4.288,7.432,7.432,0,0,1,.992,3.55c.007.291,3.5,9.734-5.82,26.757a30.665,30.665,0,0,1-4.686,7.3c-1.749,2.221-4.605,5.646-7.718,9.3-3.774,4.433-7.343,8.528-9.557,10.991-2.607,2.9-4.237,4.575-6.2,5.811a15.611,15.611,0,0,1-7.343,2.237c-2.312.261-5.578.491-9.317.7-3.322.186-7.541.382-11.764.575-4.07.34-8.837-9.373-.48-11.126,3.874-.177,7.755-.359,11.634-.577,3.462-.193,6.507-.407,8.7-.659a6.915,6.915,0,0,0,2.63-.577,25.691,25.691,0,0,0,3.841-3.846c2.754-3.064,6.317-7.126,9.382-10.73,10.26-12.055,6.353-22.257-5.559-20.958a75.172,75.172,0,0,1-8.693,1.066,59.51,59.51,0,0,1-9.145-.156,74.864,74.864,0,0,1-10.257-1.709c-3.22-.752-6.891-1.811-10.5-2.964-4.123-1.315-7.964-2.7-10.823-3.848-2.26-.906-4.007-1.706-5.378-2.375-.84,2.191-1.821,4.922-2.871,7.948-1.266,3.648-2.679,7.836-4.107,12.115-1.318,3.958-2.805,8.479-4.384,13.354-1.288,3.979-2.51,7.815-3.585,11.275l-1.42,4.6c-1.541,5.031-2.731,8.919-3.9,11.74-5.1,12.362-5.406,17.056-7.087,22.378-3.271,10.36-7.78,24.757-6.8,35.645a3.749,3.749,0,0,0,.894,1.909c.959,1.325,2.288,2.917,3.69,4.5,1.9,2.154,4.026,4.4,5.629,6.032l1.078,1.08.01-.009c2.672,2.673,3.885,3.886,5.159,7.4a46.643,46.643,0,0,1,1.6,5.955l.133.633c.943,3-8.935,2.722-11.415,0a26.663,26.663,0,0,0-.787-2.791c-.407-1.127-1.085-1.807-2.584-3.3v-.023l-1.129-1.136c-1.646-1.672-3.895-4.058-6.022-6.467-1.725-1.951-3.318-3.855-4.389-5.334a13.259,13.259,0,0,1-2.945-7.492c-.219-2.421.028-5.369.521-10.451,3.869-39.652,5.874-17.919-4.13-48.115a66.582,66.582,0,0,1-2.249-11.983c-.626-5.017-1.413-12.9-2.17-20.49-.605-6.081-1.189-11.955-1.783-16.832a57.171,57.171,0,0,0-1.318-8.009c-.088-.3.037-.2-.011-.247a1.658,1.658,0,0,0-.475-.344,3.2,3.2,0,0,0-1.208-.163,51.9,51.9,0,0,0-7.753,1.122c-1.818.335-3.837.71-4.626.847-3.173.55-6.882,1.134-10.945,1.593a122,122,0,0,1-12.872.8,103.316,103.316,0,0,1-13.624-.829,125.565,125.565,0,0,1-14.306-2.68c-3.9-.959-8.132-2.186-12.125-3.343a122.9,122.9,0,0,0-13.142-3.369,8.58,8.58,0,0,0-2.519-.221c-.272.167.3.016.226.391l.023,0a54.234,54.234,0,0,0-.713,8.214c-.091,2.125-.186,4.353-.316,6.1-.221,2.964-.6,6.055-1.122,9.31s-1.171,6.491-1.932,9.729c-.5,2.123-1.243,4.984-1.972,7.778-1,3.853-1.974,7.583-2.531,10.583a68.407,68.407,0,0,0-.843,6.877,47.644,47.644,0,0,1-.62,5.078c-4.5,23.316-.458,31.024,8.866,52.61,1.888,4.372,3,6.658,3.867,7.8a3.715,3.715,0,0,0,1.709,1.052c.948.382,2.5.959,4.156,1.574,3.091,1.148,6.574,2.44,9.368,3.769a26.951,26.951,0,0,1,5.781,3.6,21.928,21.928,0,0,1,4.081,4.488c1.392,2,3.865,6.481,5.867,10.295,3.371,2.582-7.357,3.071-12.711,0a38.146,38.146,0,0,0-2.321-3.925,11.327,11.327,0,0,0-2.028-2.307,16.667,16.667,0,0,0-3.469-2.074c-2.3-1.092-5.557-2.3-8.451-3.378-1.558-.578-3.006-1.115-4.461-1.7a12.794,12.794,0,0,1-6.376-4.628c-1.537-2.016-3.013-4.947-5.264-10.16-1.976-4.572-4.863-11.652-8.206-19.98-11.575-18.65-14.911-15.233-22.068-29.9a22.228,22.228,0,0,1-1.76-4.868,21.69,21.69,0,0,1-.461-6.5,73.769,73.769,0,0,1,1.59-9.427c.368-1.755.762-3.623,1.18-5.995.526-2.961.94-5.932,1.2-8.668a75.228,75.228,0,0,0,.363-7.652,29.089,29.089,0,0,0-.568-5.8,16.417,16.417,0,0,0-1.592-4.4,28.3,28.3,0,0,0-3.071-4.442c-1.2-1.467-2.51-2.845-3.646-3.983-1.113-1.11-1.995-1.928-2.7-2.5l-.237-.193-.568.361a63.656,63.656,0,0,0-6.211,4.645,70.017,70.017,0,0,0-5.862,5.494c-4.382,4.626-8.579,10.439-12.851,16.355l-.745,1.029c-2.279,3.154-4.619,6.365-7.105,9.638-2.442,3.213-4.844,6.237-7.135,8.858-6.914,7.922-18.189,15.5-23.465,23.877-3.967,6.309-8.512,17.579-12.5,46.769-.484,3.543-.761,6.156-.868,8.165a10.485,10.485,0,0,0,.158,3.324v.021a8.535,8.535,0,0,0,1.643,2.675c2.219,2.773,6.393,6.945,10.8,11.277,2.039,3.071-11.208,2.794-15.661,0-1.464-1.562-2.768-3.024-3.818-4.34a18.631,18.631,0,0,1-3.646-6.449h0a19.978,19.978,0,0,1-.6-7.077c.126-2.316.431-5.222.959-9.079.517-3.786,1.245-8.474,2.226-14.427,5.138-31.194,7.641-24.941,1.245-50.282h0c-1.2-4.793.67-6.216,5-9.508l.3-.224c1.122-.854,2.579-1.981,4.23-3.4a42.832,42.832,0,0,0,4.393-4.312,30.128,30.128,0,0,0,3.42-4.884l.01.007a38.881,38.881,0,0,0,2.635-5.827,36.342,36.342,0,0,0,1.8-6.812,42.593,42.593,0,0,0,.417-8.893,88.632,88.632,0,0,0-1.518-11.833,119.93,119.93,0,0,0-3.224-12.993c-1.013-3.273-2.244-6.6-3.474-9.927a149.31,149.31,0,0,1-4.926-15,105.483,105.483,0,0,1-2.792-15.682,74.821,74.821,0,0,1-.177-14.388,46.156,46.156,0,0,1,2.866-12.248,54.339,54.339,0,0,1,8.115-13.894q-.765-.157-1.564-.342c-.966-.226-2.011-.489-3.108-.764-4-1.008-8.712-2.193-12.774-2.223a19.713,19.713,0,0,0-6.919,1.138,16.614,16.614,0,0,0-5.5,3.331,15.3,15.3,0,0,0-4.254,6.309,17.8,17.8,0,0,0-.68,8.209c1.025,7.881,6.4,18.888,12.136,30.617l.2.421c2.959,6.055,6,12.306,8.877,19.081a119.074,119.074,0,0,1,6.663,19.7,68.305,68.305,0,0,1,1.732,18.846,44.74,44.74,0,0,1-3.893,16.539,29.088,29.088,0,0,1-9.8,11.766,30.132,30.132,0,0,1-14.567,5.08,54.059,54.059,0,0,1-13.813-.754A84.442,84.442,0,0,1,1399.8,691c-4.148-1.595-6.518-3.122-7.664-4.232a7.143,7.143,0,0,1-1.729-2.54l.014,0a5.521,5.521,0,0,1,1.241-6.195l.023-.021a5.864,5.864,0,0,1,3.69-1.741,9.171,9.171,0,0,1,3.914.589,20.806,20.806,0,0,0,4.8.971,25.772,25.772,0,0,0,6.3-.445,18.279,18.279,0,0,0,5.068-1.648,7.609,7.609,0,0,0,2.722-2.354,7.163,7.163,0,0,0,1.2-3.231,9.961,9.961,0,0,0-.461-4.281,23.065,23.065,0,0,0-3.4-6.358c-1.909-2.649-4.807-5.9-8.232-9.743-3.276-3.674-7.031-7.883-11.233-13.1a173.68,173.68,0,0,1-14.178-20.159,84.748,84.748,0,0,1-8.283-18.068,52.471,52.471,0,0,1,2.1-36.349,49.648,49.648,0,0,1,7.9-12.709,61.039,61.039,0,0,1,10.479-9.545,70.892,70.892,0,0,1,12.758-7.5,55,55,0,0,1,15.274-4.414,60.808,60.808,0,0,1,32.4,4.877,53.916,53.916,0,0,1,10.94,6.731,33.158,33.158,0,0,1,7.832,8.437Zm261.907,80.8c5.953-3.383,11.345,2.03,8.642,7.024L1737.137,644c.787.352,1.685.733,2.717,1.148,2.777,1.115,6.356,2.412,10.036,3.585,3.124,1,6.477,1.953,9.673,2.7a64.281,64.281,0,0,0,8.73,1.488c22.171,2.058,54.522,3.99,12.039-11.841-3.376-1.257-6.591-2.554-9.417-3.816a73.362,73.362,0,0,1-7.946-4.065,23.456,23.456,0,0,1-5.5-4.337c-3.592-4.121-3.036-6.91-2.077-11.687l-.021,0,.054-.265a46.7,46.7,0,0,0,.791-5.038,14.4,14.4,0,0,0-.186-4.47,21.46,21.46,0,0,0-3.066-5.906c-.582-.9-1.129-1.734-1.639-2.638a13.76,13.76,0,0,1-1.39-11.205c.4-1.464.945-2.954,1.623-4.8.7-1.9,1.55-4.223,2.449-7.108.856-2.752,1.771-6.051,2.507-9.578a70.545,70.545,0,0,0,1.474-11.037c.319-6.859-.668-14-1.439-19.582l-.249-1.849c-.426-3.15-.724-5.746-.829-7.93a19.944,19.944,0,0,1,.571-6.563,10.451,10.451,0,0,1,4-5.713,38.051,38.051,0,0,1,5.69-3.3c2.407-1.232,5.464-2.777,8.078-4.018a78.774,78.774,0,0,1,8.027-3.4c3.893-1.3,6.589-.92,8.528.612,2.91,2.3,2.982,5.192,1.711,8.463a40.042,40.042,0,0,1-2.659,5.175c-.645,1.127-1.339,2.335-1.825,3.264a31.3,31.3,0,0,0-1.819,4.044,11.632,11.632,0,0,0-.743,3.169,7.574,7.574,0,0,0,.41,2.682,35.178,35.178,0,0,0,1.967,4.607l1.3,2.666a77.493,77.493,0,0,1,5.089,11.654,17.193,17.193,0,0,1,.694,7.08,13.136,13.136,0,0,1-2.074,5.622,17.469,17.469,0,0,1-3.057,3.529h-.021c-1.015.908-1.956,1.613-2.875,2.3l-.037.026c-.6.442-1.085-.591-1.127.137,0,.06.1.109.261.454a18.4,18.4,0,0,0,2.016,3.113,23.734,23.734,0,0,0,3,3.3,13.081,13.081,0,0,0,3.457,2.289,14.923,14.923,0,0,0,4.109,1.043,16.854,16.854,0,0,0,4.54-.028,4.889,4.889,0,0,0,1.9-.622,2.353,2.353,0,0,0,.71-.9h.021a29.648,29.648,0,0,0,1.386-4.239c.584-2.039,1.3-4.547,2.477-7.862,1.269-3.569,3.085-8.034,5.071-12.36a101.011,101.011,0,0,1,5.338-10.309,51.313,51.313,0,0,1,5.466-7.271,15.988,15.988,0,0,0,2-2.577,17.452,17.452,0,0,0,.917-3.313,20.273,20.273,0,0,1,6.7-12.35,25.893,25.893,0,0,0,2.309-2.61,13.538,13.538,0,0,0,1.651-3.19c.517-1.362.929-2.85,1.323-4.321a40.038,40.038,0,0,0,.945-4.181,8.917,8.917,0,0,0,.082-2.74,4.985,4.985,0,0,0-.962-2.072,32.444,32.444,0,0,0-4.547-4.812c-2.512-2.3-6.032-5.22-10.12-8.314-3.464-2.624-7.212-5.266-10.912-7.587a102.514,102.514,0,0,0-12.22-6.619,91.189,91.189,0,0,0-13.168-4.8,94.635,94.635,0,0,0-15.368-2.968,80.386,80.386,0,0,0-14.739-.244A66.547,66.547,0,0,0,1743.6,464.7a77.924,77.924,0,0,0-16.066,7.415,160.214,160.214,0,0,0-17.626,12.583c-6.006,4.835-12.136,10.216-18.1,15.584-4.314,3.888-8.183,7.436-11.9,10.842-7.336,6.728-14.092,12.925-20.159,17.98a102.025,102.025,0,0,1-12.646,9.256l.007.01a63.971,63.971,0,0,1-13.1,5.976,94.144,94.144,0,0,1-16.252,3.776,113.485,113.485,0,0,1-17.552,1.108c-12.492-.168-25.6-2.344-39.091-4.584l-.2-.028c-6.719-1.12-13.533-2.249-19.791-3.045a134.887,134.887,0,0,0-17.847-1.276,65.047,65.047,0,0,0-14.458,1.7,60.361,60.361,0,0,0-12.15,4.323,82.678,82.678,0,0,0-9.647,5.483,106.942,106.942,0,0,0-9.8,7.287,52.186,52.186,0,0,0-5.434,5.113,35.977,35.977,0,0,0-3.771,5.057,39.154,39.154,0,0,0-3.5,6.84,34.941,34.941,0,0,0-2.17,9.284,64.259,64.259,0,0,0,.177,12.25,93.846,93.846,0,0,0,2.486,13.98,144.079,144.079,0,0,0,4.619,13.952c1.224,3.308,2.454,6.626,3.65,10.493a132.127,132.127,0,0,1,3.532,14.215,99.6,99.6,0,0,1,1.688,13.361,53.2,53.2,0,0,1-.545,11.163,47.489,47.489,0,0,1-2.326,8.861,49.775,49.775,0,0,1-3.429,7.5v.021a41.138,41.138,0,0,1-4.686,6.672,53.325,53.325,0,0,1-5.529,5.448c-7.927,6.838,1.495,9.108,6.889,4.26l.03-.026a128.156,128.156,0,0,0,11.431-11.305c2.2-2.519,4.43-5.32,6.656-8.248,2.182-2.871,4.554-6.13,6.931-9.417l.743-1.031c7.445-10.307,11.561-16.839,20.892-24.235h.021c2.67-2.114,5.287-4.083,7.787-5.753l0,.007c2.377-1.585,4.712-2.952,7.038-4.312,2.446-1.434,4.889-2.866,7.345-4.565a40.753,40.753,0,0,0,6.281-5.247,29.7,29.7,0,0,0,5.124-7.2,56.733,56.733,0,0,0,3.82-10.635c1.141-4.216,2.1-8.728,3.054-13.237,4.193-6.491,10.9-4.044,10.907,2.312-1,4.705-2,9.41-3.185,13.805a67.261,67.261,0,0,1-4.649,12.772c-.135.27-.274.535-.417.8a80.37,80.37,0,0,0,11.091,4.237c7.974,2.319,31.879,7.995,41.019,10.241a114.531,114.531,0,0,0,13.02,2.461h.021a92.852,92.852,0,0,0,12.185.743,111.76,111.76,0,0,0,11.691-.757c3.72-.421,7.238-.976,10.29-1.506,2.526-.437,3.543-.626,4.5-.8a58.9,58.9,0,0,1,9.76-1.341,13.955,13.955,0,0,1,5.615,1.08,12.448,12.448,0,0,1,3.746,2.526,10.1,10.1,0,0,1,3.022,5.178,64.751,64.751,0,0,1,1.713,9.841c.47,3.883,1.115,10.353,1.781,17.048.694,6.954,1.416,14.18,2.17,20.229,2.666,21.309,9.5,17.984,13-2.053l1.422-4.645c1.059-3.415,2.3-7.3,3.63-11.408,1.243-3.848,2.766-8.465,4.423-13.44,1.443-4.328,2.873-8.56,4.151-12.246,6.342-18.276,3.392-10.4,18.236-28.67Zm-165.317,19.065q-1.617-.4-3.166-.854a96.49,96.49,0,0,1-14.69-5.75,51.9,51.9,0,0,1-7.916,6.619c-1.69,1.171-3.367,2.221-5.036,3.224q.457.436.945.927l.021.021c1.3,1.3,2.829,2.919,4.353,4.78a39.349,39.349,0,0,1,4.3,6.274,27.457,27.457,0,0,1,2.682,7.322,40.214,40.214,0,0,1,.787,8.029,85.811,85.811,0,0,1-.408,8.742c-.312,3.331-.754,6.609-1.283,9.585-.342,1.928-.819,4.2-1.269,6.344a66.164,66.164,0,0,0-1.371,7.9c-.829,11.79,11.258,9.017,12.25-2.5a74.968,74.968,0,0,1,1.017-7.969c.629-3.394,1.651-7.315,2.705-11.37.594-2.277,1.2-4.6,1.883-7.515.754-3.2,1.357-6.174,1.8-8.944s.78-5.564.992-8.393c.17-2.275.245-4.035.317-5.711a63.811,63.811,0,0,1,.929-10.176h.021c.045-.2.091-.391.137-.582ZM1453.208,544.646c-1.06-.612-2.172-1.192-3.331-1.725a50.591,50.591,0,0,0-26.333-3.962,43.878,43.878,0,0,0-12.173,3.543,59.546,59.546,0,0,0-10.709,6.321,50.063,50.063,0,0,0-8.6,7.8,38.621,38.621,0,0,0-6.155,9.871,41.314,41.314,0,0,0-1.62,28.712,73.507,73.507,0,0,0,7.192,15.626,162.485,162.485,0,0,0,13.261,18.848c3.836,4.761,7.6,8.982,10.884,12.665A138.245,138.245,0,0,1,1424.55,653a34.163,34.163,0,0,1,5.01,9.5,20.788,20.788,0,0,1,.9,8.993,18.018,18.018,0,0,1-8.491,13.312,34.519,34.519,0,0,0,5.844.016,19.151,19.151,0,0,0,9.245-3.161,18.167,18.167,0,0,0,6.044-7.357,33.617,33.617,0,0,0,2.845-12.395,57.224,57.224,0,0,0-1.469-15.794,108.313,108.313,0,0,0-6.053-17.822c-2.491-5.871-5.613-12.281-8.658-18.513l-.207-.421c-6.121-12.527-11.864-24.282-13.138-34.065a28.767,28.767,0,0,1,1.2-13.268,26.32,26.32,0,0,1,7.266-10.935,27.782,27.782,0,0,1,9.21-5.555,30.564,30.564,0,0,1,10.758-1.8A46.678,46.678,0,0,1,1453.208,544.646Z" transform="translate(4.655 4.656)" fill-rule="evenodd"/>
    <path id="Контур_505" data-name="Контур 505" d="M1566.083,479.508l5.792,6.074c3.611,3.788-2.6,9.71-6.214,5.925l-5.79-6.076C1556.259,481.645,1562.474,475.72,1566.083,479.508Z" transform="translate(253.644 41.81)" fill-rule="evenodd"/>
    <path id="Контур_506" data-name="Контур 506" d="M1473.274,547.966c2.277-1.774,4.854-3.655,7.652-5.49a93.529,93.529,0,0,1,10.956-6.228,71.6,71.6,0,0,1,14.418-5.108,75.893,75.893,0,0,1,16.9-1.963,144.8,144.8,0,0,1,19.332,1.362c6.822.868,13.561,1.984,20.206,3.087l.2.028c13.121,2.181,25.872,4.3,37.41,4.456a102.868,102.868,0,0,0,15.85-1.022,83.087,83.087,0,0,0,14.334-3.3,52.693,52.693,0,0,0,10.831-4.973h.021a91.333,91.333,0,0,0,11.265-8.26c5.464-4.554,12.3-10.823,19.724-17.631,3.972-3.643,8.109-7.438,11.988-10.93,6-5.4,12.243-10.879,18.578-15.975a170.362,170.362,0,0,1,18.89-13.459A88.914,88.914,0,0,1,1740.2,454.1a77.373,77.373,0,0,1,17.878-3.532,91.849,91.849,0,0,1,16.79.289,105.506,105.506,0,0,1,17.2,3.318,102.12,102.12,0,0,1,14.739,5.366,114.305,114.305,0,0,1,13.573,7.361c4.093,2.57,8.092,5.38,11.7,8.109,4.169,3.157,7.992,6.353,10.9,9.012a54.878,54.878,0,0,1,4.733,4.787l18.152,9.212c-2.975,6.435-6.383,4.642-13.924,5.487a50.654,50.654,0,0,1-1.208,5.359,55.014,55.014,0,0,1-1.669,5.41,24.571,24.571,0,0,1-3.045,5.809,35.469,35.469,0,0,1-3.315,3.788,10.068,10.068,0,0,0-3.823,6.984,23.856,23.856,0,0,1-1.879,5.93,22.356,22.356,0,0,1-3.527,4.889,40.78,40.78,0,0,0-4.377,5.834,88.021,88.021,0,0,0-4.73,9.087c-1.786,3.895-3.464,8.037-4.675,11.443-1.017,2.863-1.7,5.259-2.26,7.208a33.176,33.176,0,0,1-2.207,6.237l.016.009a13.216,13.216,0,0,1-4.461,5.092,15.623,15.623,0,0,1-6.353,2.368,28.05,28.05,0,0,1-7.594.114,26.161,26.161,0,0,1-7.25-1.914,24.087,24.087,0,0,1-6.425-4.167,34.932,34.932,0,0,1-4.442-4.866,29.105,29.105,0,0,1-3.239-5.166,12.048,12.048,0,0,1-1.306-5.776c.259-4.491,2.887-6.442,5.62-8.467l.038-.028c.754-.559,1.513-1.124,2.079-1.632l-.009-.012a6.82,6.82,0,0,0,1.18-1.3,2.293,2.293,0,0,0,.372-.955,6.571,6.571,0,0,0-.344-2.582,71.083,71.083,0,0,0-4.349-9.78c-.91-1.814-1.066-2.088-1.387-2.752a44.282,44.282,0,0,1-2.58-6.179,18.191,18.191,0,0,1-.889-6.563,22.542,22.542,0,0,1,1.353-6.356,36.785,36.785,0,0,1,1.443-3.432c-2.265,1.1-4.307,2.13-5.909,2.95a30.285,30.285,0,0,0-3.988,2.254c-.067.049-.058-.058-.072,0a10.084,10.084,0,0,0-.135,2.9c.086,1.807.356,4.111.74,6.97l.247,1.807c.834,6,1.9,13.7,1.532,21.586a82.05,82.05,0,0,1-1.693,12.826c-.835,4.007-1.842,7.641-2.77,10.628-1,3.206-1.892,5.636-2.624,7.629-.584,1.59-1.054,2.873-1.317,3.844a4.518,4.518,0,0,0-.226,1.49,4.1,4.1,0,0,0,.568,1.38c.293.522.754,1.227,1.248,1.984a29.7,29.7,0,0,1,4.549,9.4,25.021,25.021,0,0,1,.491,8.006,54.824,54.824,0,0,1-.968,6.3l-.051.266h-.021c-.279,1.387-.468,2.165-.456,2.179a13.07,13.07,0,0,0,2.887,2.158,62.762,62.762,0,0,0,6.726,3.406c2.663,1.192,5.652,2.4,8.758,3.557s6.514,2.321,9.955,3.4c1.583.5,3.369,1.031,5.078,1.544,4.987,1.495,9.385,2.812,12.416,4.449a11.5,11.5,0,0,1,4.724,4.288,7.432,7.432,0,0,1,.992,3.55c.007.291,3.5,9.734-5.82,26.757a30.665,30.665,0,0,1-4.686,7.3c-1.749,2.221-4.605,5.646-7.718,9.3-3.774,4.433-7.343,8.528-9.557,10.991-2.607,2.9-4.237,4.575-6.2,5.811a15.611,15.611,0,0,1-7.343,2.237c-2.312.261-5.578.491-9.317.7-3.322.186-7.541.382-11.764.575-4.07.34-8.837-9.373-.48-11.126,3.874-.177,7.755-.359,11.634-.577,3.462-.193,6.507-.407,8.7-.659a6.915,6.915,0,0,0,2.63-.577,25.691,25.691,0,0,0,3.841-3.846c2.754-3.064,6.317-7.126,9.382-10.73,10.26-12.055,6.353-22.257-5.559-20.958a75.172,75.172,0,0,1-8.693,1.066,59.51,59.51,0,0,1-9.145-.156,74.864,74.864,0,0,1-10.257-1.709c-3.22-.752-6.891-1.811-10.5-2.964-4.123-1.315-7.964-2.7-10.823-3.848-2.26-.906-4.007-1.706-5.378-2.375-.84,2.191-1.821,4.922-2.871,7.948-1.266,3.648-2.679,7.836-4.107,12.115-1.318,3.958-2.805,8.479-4.384,13.354-1.288,3.979-2.51,7.815-3.585,11.275l-1.42,4.6c-1.541,5.031-2.731,8.919-3.9,11.74-5.1,12.362-5.406,17.056-7.087,22.378-3.271,10.36-7.78,24.757-6.8,35.645a3.749,3.749,0,0,0,.894,1.909c.959,1.325,2.288,2.917,3.69,4.5,1.9,2.154,4.026,4.4,5.629,6.032l1.078,1.08.01-.009c2.672,2.673,3.885,3.886,5.159,7.4a46.643,46.643,0,0,1,1.6,5.955l.133.633c.943,3-8.935,2.722-11.415,0a26.663,26.663,0,0,0-.787-2.791c-.407-1.127-1.085-1.807-2.584-3.3v-.023l-1.129-1.136c-1.646-1.672-3.895-4.058-6.022-6.467-1.725-1.951-3.318-3.855-4.389-5.334a13.259,13.259,0,0,1-2.945-7.492c-.219-2.421.028-5.369.521-10.451,3.869-39.652,5.874-17.919-4.13-48.115a66.582,66.582,0,0,1-2.249-11.983c-.626-5.017-1.413-12.9-2.17-20.49-.605-6.081-1.189-11.955-1.783-16.832a57.171,57.171,0,0,0-1.318-8.009c-.088-.3.037-.2-.011-.247a1.658,1.658,0,0,0-.475-.344,3.2,3.2,0,0,0-1.208-.163,51.9,51.9,0,0,0-7.753,1.122c-1.818.335-3.837.71-4.626.847-3.173.55-6.882,1.134-10.945,1.593a122,122,0,0,1-12.872.8,103.316,103.316,0,0,1-13.624-.829,125.565,125.565,0,0,1-14.306-2.68c-3.9-.959-8.132-2.186-12.125-3.343a122.9,122.9,0,0,0-13.142-3.369,8.58,8.58,0,0,0-2.519-.221c-.272.167.3.016.226.391l.023,0a54.234,54.234,0,0,0-.713,8.214c-.091,2.125-.186,4.353-.316,6.1-.221,2.964-.6,6.055-1.122,9.31s-1.171,6.491-1.932,9.729c-.5,2.123-1.243,4.984-1.972,7.778-1,3.853-1.974,7.583-2.531,10.583a68.407,68.407,0,0,0-.843,6.877,47.644,47.644,0,0,1-.62,5.078c-4.5,23.316-.458,31.024,8.866,52.61,1.888,4.372,3,6.658,3.867,7.8a3.715,3.715,0,0,0,1.709,1.052c.948.382,2.5.959,4.156,1.574,3.091,1.148,6.574,2.44,9.368,3.769a26.951,26.951,0,0,1,5.781,3.6,21.928,21.928,0,0,1,4.081,4.488c1.392,2,3.865,6.481,5.867,10.295,3.371,2.582-7.357,3.071-12.711,0a38.146,38.146,0,0,0-2.321-3.925,11.327,11.327,0,0,0-2.028-2.307,16.667,16.667,0,0,0-3.469-2.074c-2.3-1.092-5.557-2.3-8.451-3.378-1.558-.578-3.006-1.115-4.461-1.7a12.794,12.794,0,0,1-6.376-4.628c-1.537-2.016-3.013-4.947-5.264-10.16-1.976-4.572-4.863-11.652-8.206-19.98-11.575-18.65-14.911-15.233-22.068-29.9a22.228,22.228,0,0,1-1.76-4.868,21.69,21.69,0,0,1-.461-6.5,73.769,73.769,0,0,1,1.59-9.427c.368-1.755.762-3.623,1.18-5.995.526-2.961.94-5.932,1.2-8.668a75.228,75.228,0,0,0,.363-7.652,29.089,29.089,0,0,0-.568-5.8,16.417,16.417,0,0,0-1.592-4.4,28.3,28.3,0,0,0-3.071-4.442c-1.2-1.467-2.51-2.845-3.646-3.983-1.113-1.11-1.995-1.928-2.7-2.5l-.237-.193-.568.361a63.656,63.656,0,0,0-6.211,4.645,70.017,70.017,0,0,0-5.862,5.494c-4.382,4.626-8.579,10.439-12.851,16.355l-.745,1.029c-2.279,3.154-4.619,6.365-7.105,9.638-2.442,3.213-4.844,6.237-7.135,8.858-6.914,7.922-18.189,15.5-23.465,23.877-3.967,6.309-8.512,17.579-12.5,46.769-.484,3.543-.761,6.156-.868,8.165a10.485,10.485,0,0,0,.158,3.324v.021a8.535,8.535,0,0,0,1.643,2.675c2.219,2.773,6.393,6.945,10.8,11.277,2.039,3.071-11.208,2.794-15.661,0-1.464-1.562-2.768-3.024-3.818-4.34a18.631,18.631,0,0,1-3.646-6.449h0a19.978,19.978,0,0,1-.6-7.077c.126-2.316.431-5.222.959-9.079.517-3.786,1.245-8.474,2.226-14.427,5.138-31.194,7.641-24.941,1.245-50.282h0c-1.2-4.793.67-6.216,5-9.508l.3-.224c1.122-.854,2.579-1.981,4.23-3.4a42.832,42.832,0,0,0,4.393-4.312,30.128,30.128,0,0,0,3.42-4.884l.01.007a38.881,38.881,0,0,0,2.635-5.827,36.342,36.342,0,0,0,1.8-6.812,42.593,42.593,0,0,0,.417-8.893,88.632,88.632,0,0,0-1.518-11.833,119.93,119.93,0,0,0-3.224-12.993c-1.013-3.273-2.244-6.6-3.474-9.927a149.31,149.31,0,0,1-4.926-15,105.483,105.483,0,0,1-2.792-15.682,74.821,74.821,0,0,1-.177-14.388,46.156,46.156,0,0,1,2.866-12.248,54.339,54.339,0,0,1,8.115-13.894q-.765-.157-1.564-.342c-.966-.226-2.011-.489-3.108-.764-4-1.008-8.712-2.193-12.774-2.223a19.713,19.713,0,0,0-6.919,1.138,16.614,16.614,0,0,0-5.5,3.331,15.3,15.3,0,0,0-4.254,6.309,17.8,17.8,0,0,0-.68,8.209c1.025,7.881,6.4,18.888,12.136,30.617l.2.421c2.959,6.055,6,12.306,8.877,19.081a119.074,119.074,0,0,1,6.663,19.7,68.305,68.305,0,0,1,1.732,18.846,44.74,44.74,0,0,1-3.893,16.539,29.088,29.088,0,0,1-9.8,11.766,30.132,30.132,0,0,1-14.567,5.08,54.059,54.059,0,0,1-13.813-.754A84.442,84.442,0,0,1,1399.8,691c-4.148-1.595-6.518-3.122-7.664-4.232a7.143,7.143,0,0,1-1.729-2.54l.014,0a5.521,5.521,0,0,1,1.241-6.195l.023-.021a5.864,5.864,0,0,1,3.69-1.741,9.171,9.171,0,0,1,3.914.589,20.806,20.806,0,0,0,4.8.971,25.772,25.772,0,0,0,6.3-.445,18.279,18.279,0,0,0,5.068-1.648,7.609,7.609,0,0,0,2.722-2.354,7.163,7.163,0,0,0,1.2-3.231,9.961,9.961,0,0,0-.461-4.281,23.065,23.065,0,0,0-3.4-6.358c-1.909-2.649-4.807-5.9-8.232-9.743-3.276-3.674-7.031-7.883-11.233-13.1a173.68,173.68,0,0,1-14.178-20.159,84.748,84.748,0,0,1-8.283-18.068,52.471,52.471,0,0,1,2.1-36.349,49.648,49.648,0,0,1,7.9-12.709,61.039,61.039,0,0,1,10.479-9.545,70.892,70.892,0,0,1,12.758-7.5,55,55,0,0,1,15.274-4.414,60.808,60.808,0,0,1,32.4,4.877,53.916,53.916,0,0,1,10.94,6.731,33.158,33.158,0,0,1,7.832,8.437Zm261.907,80.8c5.953-3.383,11.345,2.03,8.642,7.024L1737.137,644c.787.352,1.685.733,2.717,1.148,2.777,1.115,6.356,2.412,10.036,3.585,3.124,1,6.477,1.953,9.673,2.7a64.281,64.281,0,0,0,8.73,1.488c22.171,2.058,54.522,3.99,12.039-11.841-3.376-1.257-6.591-2.554-9.417-3.816a73.362,73.362,0,0,1-7.946-4.065,23.456,23.456,0,0,1-5.5-4.337c-3.592-4.121-3.036-6.91-2.077-11.687l-.021,0,.054-.265a46.7,46.7,0,0,0,.791-5.038,14.4,14.4,0,0,0-.186-4.47,21.46,21.46,0,0,0-3.066-5.906c-.582-.9-1.129-1.734-1.639-2.638a13.76,13.76,0,0,1-1.39-11.205c.4-1.464.945-2.954,1.623-4.8.7-1.9,1.55-4.223,2.449-7.108.856-2.752,1.771-6.051,2.507-9.578a70.545,70.545,0,0,0,1.474-11.037c.319-6.859-.668-14-1.439-19.582l-.249-1.849c-.426-3.15-.724-5.746-.829-7.93a19.944,19.944,0,0,1,.571-6.563,10.451,10.451,0,0,1,4-5.713,38.051,38.051,0,0,1,5.69-3.3c2.407-1.232,5.464-2.777,8.078-4.018a78.774,78.774,0,0,1,8.027-3.4c3.893-1.3,6.589-.92,8.528.612,2.91,2.3,2.982,5.192,1.711,8.463a40.042,40.042,0,0,1-2.659,5.175c-.645,1.127-1.339,2.335-1.825,3.264a31.3,31.3,0,0,0-1.819,4.044,11.632,11.632,0,0,0-.743,3.169,7.574,7.574,0,0,0,.41,2.682,35.178,35.178,0,0,0,1.967,4.607l1.3,2.666a77.493,77.493,0,0,1,5.089,11.654,17.193,17.193,0,0,1,.694,7.08,13.136,13.136,0,0,1-2.074,5.622,17.469,17.469,0,0,1-3.057,3.529h-.021c-1.015.908-1.956,1.613-2.875,2.3l-.037.026c-.6.442-1.085-.591-1.127.137,0,.06.1.109.261.454a18.4,18.4,0,0,0,2.016,3.113,23.734,23.734,0,0,0,3,3.3,13.081,13.081,0,0,0,3.457,2.289,14.923,14.923,0,0,0,4.109,1.043,16.854,16.854,0,0,0,4.54-.028,4.889,4.889,0,0,0,1.9-.622,2.353,2.353,0,0,0,.71-.9h.021a29.648,29.648,0,0,0,1.386-4.239c.584-2.039,1.3-4.547,2.477-7.862,1.269-3.569,3.085-8.034,5.071-12.36a101.011,101.011,0,0,1,5.338-10.309,51.313,51.313,0,0,1,5.466-7.271,15.988,15.988,0,0,0,2-2.577,17.452,17.452,0,0,0,.917-3.313,20.273,20.273,0,0,1,6.7-12.35,25.893,25.893,0,0,0,2.309-2.61,13.538,13.538,0,0,0,1.651-3.19c.517-1.362.929-2.85,1.323-4.321a40.038,40.038,0,0,0,.945-4.181,8.917,8.917,0,0,0,.082-2.74,4.985,4.985,0,0,0-.962-2.072,32.444,32.444,0,0,0-4.547-4.812c-2.512-2.3-6.032-5.22-10.12-8.314-3.464-2.624-7.212-5.266-10.912-7.587a102.514,102.514,0,0,0-12.22-6.619,91.189,91.189,0,0,0-13.168-4.8,94.635,94.635,0,0,0-15.368-2.968,80.386,80.386,0,0,0-14.739-.244A66.547,66.547,0,0,0,1743.6,464.7a77.924,77.924,0,0,0-16.066,7.415,160.214,160.214,0,0,0-17.626,12.583c-6.006,4.835-12.136,10.216-18.1,15.584-4.314,3.888-8.183,7.436-11.9,10.842-7.336,6.728-14.092,12.925-20.159,17.98a102.025,102.025,0,0,1-12.646,9.256l.007.01a63.971,63.971,0,0,1-13.1,5.976,94.144,94.144,0,0,1-16.252,3.776,113.485,113.485,0,0,1-17.552,1.108c-12.492-.168-25.6-2.344-39.091-4.584l-.2-.028c-6.719-1.12-13.533-2.249-19.791-3.045a134.887,134.887,0,0,0-17.847-1.276,65.047,65.047,0,0,0-14.458,1.7,60.361,60.361,0,0,0-12.15,4.323,82.678,82.678,0,0,0-9.647,5.483,106.942,106.942,0,0,0-9.8,7.287,52.186,52.186,0,0,0-5.434,5.113,35.977,35.977,0,0,0-3.771,5.057,39.154,39.154,0,0,0-3.5,6.84,34.941,34.941,0,0,0-2.17,9.284,64.259,64.259,0,0,0,.177,12.25,93.846,93.846,0,0,0,2.486,13.98,144.079,144.079,0,0,0,4.619,13.952c1.224,3.308,2.454,6.626,3.65,10.493a132.127,132.127,0,0,1,3.532,14.215,99.6,99.6,0,0,1,1.688,13.361,53.2,53.2,0,0,1-.545,11.163,47.489,47.489,0,0,1-2.326,8.861,49.775,49.775,0,0,1-3.429,7.5v.021a41.138,41.138,0,0,1-4.686,6.672,53.325,53.325,0,0,1-5.529,5.448c-7.927,6.838,1.495,9.108,6.889,4.26l.03-.026a128.156,128.156,0,0,0,11.431-11.305c2.2-2.519,4.43-5.32,6.656-8.248,2.182-2.871,4.554-6.13,6.931-9.417l.743-1.031c7.445-10.307,11.561-16.839,20.892-24.235h.021c2.67-2.114,5.287-4.083,7.787-5.753l0,.007c2.377-1.585,4.712-2.952,7.038-4.312,2.446-1.434,4.889-2.866,7.345-4.565a40.753,40.753,0,0,0,6.281-5.247,29.7,29.7,0,0,0,5.124-7.2,56.733,56.733,0,0,0,3.82-10.635c1.141-4.216,2.1-8.728,3.054-13.237,4.193-6.491,10.9-4.044,10.907,2.312-1,4.705-2,9.41-3.185,13.805a67.261,67.261,0,0,1-4.649,12.772c-.135.27-.274.535-.417.8a80.37,80.37,0,0,0,11.091,4.237c7.974,2.319,31.879,7.995,41.019,10.241a114.531,114.531,0,0,0,13.02,2.461h.021a92.852,92.852,0,0,0,12.185.743,111.76,111.76,0,0,0,11.691-.757c3.72-.421,7.238-.976,10.29-1.506,2.526-.437,3.543-.626,4.5-.8a58.9,58.9,0,0,1,9.76-1.341,13.955,13.955,0,0,1,5.615,1.08,12.448,12.448,0,0,1,3.746,2.526,10.1,10.1,0,0,1,3.022,5.178,64.751,64.751,0,0,1,1.713,9.841c.47,3.883,1.115,10.353,1.781,17.048.694,6.954,1.416,14.18,2.17,20.229,2.666,21.309,9.5,17.984,13-2.053l1.422-4.645c1.059-3.415,2.3-7.3,3.63-11.408,1.243-3.848,2.766-8.465,4.423-13.44,1.443-4.328,2.873-8.56,4.151-12.246,6.342-18.276,3.392-10.4,18.236-28.67Zm-165.317,19.065q-1.617-.4-3.166-.854a96.49,96.49,0,0,1-14.69-5.75,51.9,51.9,0,0,1-7.916,6.619c-1.69,1.171-3.367,2.221-5.036,3.224q.457.436.945.927l.021.021c1.3,1.3,2.829,2.919,4.353,4.78a39.349,39.349,0,0,1,4.3,6.274,27.457,27.457,0,0,1,2.682,7.322,40.214,40.214,0,0,1,.787,8.029,85.811,85.811,0,0,1-.408,8.742c-.312,3.331-.754,6.609-1.283,9.585-.342,1.928-.819,4.2-1.269,6.344a66.164,66.164,0,0,0-1.371,7.9c-.829,11.79,11.258,9.017,12.25-2.5a74.968,74.968,0,0,1,1.017-7.969c.629-3.394,1.651-7.315,2.705-11.37.594-2.277,1.2-4.6,1.883-7.515.754-3.2,1.357-6.174,1.8-8.944s.78-5.564.992-8.393c.17-2.275.245-4.035.317-5.711a63.811,63.811,0,0,1,.929-10.176h.021c.045-.2.091-.391.137-.582ZM1453.208,544.646c-1.06-.612-2.172-1.192-3.331-1.725a50.591,50.591,0,0,0-26.333-3.962,43.878,43.878,0,0,0-12.173,3.543,59.546,59.546,0,0,0-10.709,6.321,50.063,50.063,0,0,0-8.6,7.8,38.621,38.621,0,0,0-6.155,9.871,41.314,41.314,0,0,0-1.62,28.712,73.507,73.507,0,0,0,7.192,15.626,162.485,162.485,0,0,0,13.261,18.848c3.836,4.761,7.6,8.982,10.884,12.665A138.245,138.245,0,0,1,1424.55,653a34.163,34.163,0,0,1,5.01,9.5,20.788,20.788,0,0,1,.9,8.993,18.018,18.018,0,0,1-8.491,13.312,34.519,34.519,0,0,0,5.844.016,19.151,19.151,0,0,0,9.245-3.161,18.167,18.167,0,0,0,6.044-7.357,33.617,33.617,0,0,0,2.845-12.395,57.224,57.224,0,0,0-1.469-15.794,108.313,108.313,0,0,0-6.053-17.822c-2.491-5.871-5.613-12.281-8.658-18.513l-.207-.421c-6.121-12.527-11.864-24.282-13.138-34.065a28.767,28.767,0,0,1,1.2-13.268,26.32,26.32,0,0,1,7.266-10.935,27.782,27.782,0,0,1,9.21-5.555,30.564,30.564,0,0,1,10.758-1.8A46.678,46.678,0,0,1,1453.208,544.646Z" transform="translate(4.655 4.656)" fill-rule="evenodd"/>
  </g>
</svg>
