<svg xmlns="http://www.w3.org/2000/svg" width="150.699" height="225.499" viewBox="0 0 150.699 225.499">
  <g id="Vector_Smart_Object" data-name="Vector Smart Object" transform="translate(-177.365 -341.49)">
    <path id="Контур_39" data-name="Контур 39" d="M238.547,566.99a46.438,46.438,0,0,1-15.558-2.539q-.329-.117-.647-.239c-.218.1-.439.2-.664.287a15.8,15.8,0,0,1-3.971.977c-.961.119-2.124.188-3.77.224-.7.016-1.469.023-2.364.023-.593,0-1.21,0-1.84-.009-1.507-.014-3.022-.041-4.5-.067-1.612-.028-3.279-.057-4.7-.16a27.136,27.136,0,0,1-5.214-.832,19.755,19.755,0,0,1-8.475-4.8,13.393,13.393,0,0,1-3.018-4.116l-.348-.737v-.078a18.223,18.223,0,0,1-1.1-4.548c-.169-1.364-.281-3.2-.34-5.612-.058-2.364-.058-3.781-.058-4.815,0-1.091,0-1.9-.014-2.185-.113-.459-.4-1.4-.794-2.659l-.249-.8c-.352-1.143-.764-2.488-1.183-3.993-.507-1.822-.908-3.455-1.224-4.995a53.882,53.882,0,0,1-.828-5.39c-.182-1.772-.286-3.653-.316-5.75-.034-2.384.029-4.73.183-6.787a48.206,48.206,0,0,1,.8-6.015,29.32,29.32,0,0,1,1.8-5.808,23.191,23.191,0,0,1,2.692-4.652q.358-.477.741-.933a35.065,35.065,0,0,1-1.812-3.142,26.308,26.308,0,0,1-2.393-6.778,28.01,28.01,0,0,1-.43-7.69,38.381,38.381,0,0,1,1.989-9.574,36.13,36.13,0,0,1,4.315-8.631,55.278,55.278,0,0,1,9-9.786q-.749-.824-1.43-1.691a28.806,28.806,0,0,1-3.972-6.826,40.987,40.987,0,0,1-2.235-7.5,53.854,53.854,0,0,1-.838-15.749,60.3,60.3,0,0,1,1.042-6.868c.37-1.768.755-3.3,1.127-4.786l.019-.076c.557-2.212,1.079-4.29,1.392-6.268a49.6,49.6,0,0,0,.521-5.493c.079-1.713.113-3.85.113-7.149,0-1.511,0-3.351,0-3.351,0-.04,0-.172,0-.172-.018-4.939-.036-10.019.2-13.957a48.066,48.066,0,0,1,.868-7,26.476,26.476,0,0,1,1.79-5.588,21.719,21.719,0,0,1,2.741-4.526,17.509,17.509,0,0,1,3.924-3.652,12.355,12.355,0,0,1,6.3-2.211c.273-.018.553-.028.831-.028a16.217,16.217,0,0,1,6.4,1.45,41.268,41.268,0,0,1,7.208,4.164,75.442,75.442,0,0,1,7.381,5.954,178.866,178.866,0,0,1,12.867,13.471c.684-.034,1.42-.062,2.2-.08.665-.018,1.341-.025,2.01-.025.623,0,1.237.007,1.834.021q.827.02,1.577.052a177.874,177.874,0,0,1,12.838-13.439,75.461,75.461,0,0,1,7.381-5.953,41.252,41.252,0,0,1,7.207-4.164,16.223,16.223,0,0,1,6.4-1.45c.277,0,.557.01.831.028a12.355,12.355,0,0,1,6.3,2.211,17.5,17.5,0,0,1,3.923,3.651,21.637,21.637,0,0,1,2.742,4.527,26.521,26.521,0,0,1,1.79,5.588,48.238,48.238,0,0,1,.868,7c.174,2.886.21,6.384.21,9.98.947-.171,1.939-.3,2.954-.4,1.194-.111,2.394-.167,3.563-.167.944,0,1.86.037,2.72.11a24.806,24.806,0,0,1,5.831,1.18,21.152,21.152,0,0,1,5.055,2.46,20.888,20.888,0,0,1,4.3,3.775,19.66,19.66,0,0,1,3.086,4.857,22.266,22.266,0,0,1,1.557,5.289,26.456,26.456,0,0,1,.34,5.531,23.855,23.855,0,0,1-.713,4.918,18.659,18.659,0,0,1-1.845,4.649,16.605,16.605,0,0,1-2.784,3.586,17.506,17.506,0,0,1-1.883,1.6c0,.759,0,1.708.011,2.914l0,.318c.033,4.278.089,11.446-.328,17.524a74.269,74.269,0,0,1-1.152,9.273,40.777,40.777,0,0,1-2.561,8.452,35.835,35.835,0,0,1-4.111,7.065,48.419,48.419,0,0,1-4.557,5.247,56.022,56.022,0,0,1-4.312,3.938,36.271,36.271,0,0,1-4.371,3.1c-.774.458-1.5.836-2.158,1.156.076,1.756.209,4.284.365,6.925.154,2.6.321,5.045.47,6.877l.005.057a19.43,19.43,0,0,1,3.945,2.61,16.96,16.96,0,0,1,3.762,4.694,25.968,25.968,0,0,1,2.3,5.858,51.5,51.5,0,0,1,1.354,7.262,67.618,67.618,0,0,1,.458,7.848c0,2.252-.127,4.8-.375,7.56-.242,2.678-.6,5.422-1.015,7.729-.255,1.427-.506,2.556-.729,3.551a25.189,25.189,0,0,0-.664,4c-.167,2.225-.116,5.417-.074,7.982l0,.125c.011.755.023,1.475.03,2.188a39.969,39.969,0,0,1-.135,4.4,15.151,15.151,0,0,1-1.075,4.4,13.383,13.383,0,0,1-2.908,4.37,17.055,17.055,0,0,1-4.789,3.323,34.98,34.98,0,0,1-6.121,2.193,50.382,50.382,0,0,1-6.781,1.3,59.62,59.62,0,0,1-6.38.389q-.439,0-.866,0c-2.014,0-4.005-.08-5.757-.234a33.958,33.958,0,0,1-4.558-.675c-.095-.021-.188-.043-.282-.066l-.18.392-3.36-1.627a11.211,11.211,0,0,1-2.089-1.346,77.021,77.021,0,0,1-23.282,4.046m-27.678-58.2c.065.813.169,1.7.328,2.658a63.969,63.969,0,0,0,1.77,7.417c.846,2.885,1.917,6.024,3.182,9.33,1.28,3.342,2.675,6.644,4.034,9.549a76.3,76.3,0,0,0,3.749,7.161,15.373,15.373,0,0,0,2.36,3.138l.237.222.194.26c1.721,2.31,5.975,3.689,11.375,3.689,8.429,0,16-3.138,17.784-6.069a12.223,12.223,0,0,0,1.15-2.577,15.288,15.288,0,0,0,.654-3.161,16.172,16.172,0,0,0-.147-4.062,58.336,58.336,0,0,0-1.849-7.754c-1.1-3.725-2.7-8.476-4.385-13.036-1.65-4.463-3.255-8.4-4.64-11.381a41.283,41.283,0,0,0-3.786-6.768,11.517,11.517,0,0,0-2.316-2.481l-.2.713-.338-.084a19.182,19.182,0,0,1-1.619,2.634,24.05,24.05,0,0,1-4.459,4.6,31.443,31.443,0,0,1-6.32,3.951,26.984,26.984,0,0,1-6.956,2.212,26.047,26.047,0,0,1-4.318.353,29.565,29.565,0,0,1-3.8-.25q-.842-.109-1.687-.264m59.6,42.4a5.065,5.065,0,0,0,.491.132,21.235,21.235,0,0,0,2.607.35c1.068.094,2.742.2,4.667.2q.274,0,.548,0a44.133,44.133,0,0,0,4.789-.307,35.207,35.207,0,0,0,4.775-.906,20.568,20.568,0,0,0,3.491-1.221,5.824,5.824,0,0,0,.576-.312l.011-.1a27.277,27.277,0,0,0,.068-2.791c0-.606-.018-1.364-.03-2.166l0-.084c-.048-3.092-.1-6.595.095-9.255a38.981,38.981,0,0,1,.989-6.073c.2-.9.407-1.828.612-2.97.342-1.914.642-4.2.843-6.435.191-2.125.288-4.236.288-6.275a53.084,53.084,0,0,0-.35-6.163,36.57,36.57,0,0,0-.949-5.144,12.027,12.027,0,0,0-.949-2.565,2.745,2.745,0,0,0-.547-.732,10.863,10.863,0,0,0-2.1-1.168c-.447-.209-.91-.425-1.367-.67a8.681,8.681,0,0,1-4.594-5.278,21.634,21.634,0,0,1-.909-5.44c-.132-1.607-.3-4.158-.482-7.184-.037-.639-.075-1.284-.11-1.924-.313,1.532-.669,2.957-1.073,4.3a32.4,32.4,0,0,1-3.53,7.973,25.976,25.976,0,0,1-5.415,6.19,30.335,30.335,0,0,1-6.4,4.055l-3.249,1.552-.076-.154q-.87.33-1.8.644c1.166,2.722,2.406,5.853,3.654,9.23,1.765,4.772,3.473,9.861,4.683,13.961a71.076,71.076,0,0,1,2.3,9.8,30.445,30.445,0,0,1,.218,7.584,29.861,29.861,0,0,1-1.284,6.2,28.084,28.084,0,0,1-1.038,2.744,3.135,3.135,0,0,0,.422.34Zm-73.432-1.825a5.185,5.185,0,0,0,.963.7,5.059,5.059,0,0,0,1.159.483,13.557,13.557,0,0,0,2.41.336c1.36.1,2.655.121,3.906.143,1.491.026,3.01.053,4.383.065l.742.005c-1.142-2-2.391-4.443-3.661-7.159-1.587-3.391-3.131-7.03-4.468-10.52-1.369-3.575-2.56-7.085-3.542-10.431a78.51,78.51,0,0,1-2.169-9.173,44.287,44.287,0,0,1-.452-11.169q-1.261-.845-2.48-1.779-.132.261-.254.543a14.525,14.525,0,0,0-.885,2.895,34.22,34.22,0,0,0-.532,4.177c-.133,1.786-.189,3.69-.164,5.5.023,1.571.1,3.027.25,4.453a39.558,39.558,0,0,0,.6,3.948c.241,1.179.565,2.492.989,4.014.356,1.277.723,2.478,1.069,3.6l.237.766c.555,1.791.889,2.873,1.115,3.874a20.32,20.32,0,0,1,.375,5.312c0,1.417,0,3.356.026,4.464.044,1.736.13,3.141.259,4.177.045.371.088.616.12.772m4.507-91.781a33.783,33.783,0,0,0-4.2,4.839,21.494,21.494,0,0,0-2.578,5.139,23.446,23.446,0,0,0-1.206,5.862,13.848,13.848,0,0,0,.162,3.757,11.8,11.8,0,0,0,1.114,3.05,22.108,22.108,0,0,0,2.363,3.636,29.566,29.566,0,0,0,3.416,3.649,33.239,33.239,0,0,0,4.528,3.431,27.792,27.792,0,0,0,4.638,2.375,19.769,19.769,0,0,0,4.63,1.233,14.605,14.605,0,0,0,1.869.124,11.825,11.825,0,0,0,1.967-.159,12.351,12.351,0,0,0,3.176-1.019,16.958,16.958,0,0,0,3.351-2.114,9.955,9.955,0,0,0,1.812-1.8,4.049,4.049,0,0,0,.6-1.151l.042-.154a3.725,3.725,0,0,0,.12-1.484,2.814,2.814,0,0,0-.413-1.126,9.419,9.419,0,0,0-1.988-2.08,38.7,38.7,0,0,0-3.9-2.775c-1.18-.754-2.295-1.43-3.372-2.083-2.107-1.278-4.079-2.474-5.741-3.693a22.017,22.017,0,0,1-4.48-4.234,25.4,25.4,0,0,1-3.471-6.137c-.844-2.037-1.656-4.491-2.435-7.088m45.7,24.254a22.045,22.045,0,0,1,1.977,1.306,25.059,25.059,0,0,1,5.022,5.023c.446-.129.9-.265,1.359-.408a37.765,37.765,0,0,0,4.026-1.472l.575-.278a15.943,15.943,0,0,0,3.357-2.077,11.213,11.213,0,0,0,2.374-2.7,18.376,18.376,0,0,0,1.893-4.422,43.531,43.531,0,0,0,1.41-6.935c.448-3.434.7-7.439.865-11.377-.118.037-.236.073-.353.109a59.965,59.965,0,0,1-7.261,1.708c-2.13.364-4.28.61-6.256.781a13.8,13.8,0,0,1,1.976,7.122,13.964,13.964,0,0,1-9.994,13.338Zm-30.155-23.807q.208.556.405,1.032a11.643,11.643,0,0,0,1.458,2.7,7.957,7.957,0,0,0,1.627,1.484c1.3.952,2.924,1.939,4.647,2.984,1.157.7,2.453,1.487,3.679,2.272q.835.533,1.581,1.036c-.042-.435-.064-.874-.064-1.316A13.811,13.811,0,0,1,232.4,461.1c-1.976-.172-4.125-.417-6.255-.781a59.943,59.943,0,0,1-7.261-1.708q-.888-.269-1.793-.575m67.872-6.219c-.095,3.228-.2,6.483-.359,9.641a9.059,9.059,0,0,1,2.689-2.136,19.8,19.8,0,0,1,2.1-.983,20.157,20.157,0,0,0,2.589-1.239,21.485,21.485,0,0,0,2.583-1.841,41.14,41.14,0,0,0,3.17-2.9,33.794,33.794,0,0,0,3.19-3.654,20.854,20.854,0,0,0,2.443-4.157,26.506,26.506,0,0,0,1.607-5.46,59.818,59.818,0,0,0,.918-7.445c.394-5.742.342-12.442.311-16.445l0-.316c-.018-2.319-.025-3.809.021-4.931a12.881,12.881,0,0,1,.862-4.564,9.507,9.507,0,0,1,1.515-2.549l-.256-.4,3.634-2.22a3.322,3.322,0,0,0,.462-.379,1.97,1.97,0,0,0,.335-.431,4.1,4.1,0,0,0,.389-1,9.179,9.179,0,0,0,.259-1.884,12.078,12.078,0,0,0-.157-2.506,7.688,7.688,0,0,0-.517-1.8,4.942,4.942,0,0,0-.766-1.215,6.292,6.292,0,0,0-1.3-1.13,6.757,6.757,0,0,0-1.617-.791,10.664,10.664,0,0,0-2.417-.457c-.539-.045-1.111-.069-1.7-.069-.68,0-1.363.032-2.026.094a16.114,16.114,0,0,0-3.1.564,6.453,6.453,0,0,0-1.054.428,48.276,48.276,0,0,0,.494,4.99c.314,1.975.835,4.049,1.387,6.246l.019.07c.374,1.492.762,3.033,1.134,4.813a60.311,60.311,0,0,1,1.042,6.868,53.812,53.812,0,0,1-.839,15.75,40.894,40.894,0,0,1-2.234,7.5,28.855,28.855,0,0,1-3.971,6.825,32.515,32.515,0,0,1-5.458,5.423,51.5,51.5,0,0,1-5.379,3.7M207.186,356.34c-.039.045-.079.094-.121.146a7.006,7.006,0,0,0-.863,1.455,11.955,11.955,0,0,0-.8,2.545,34.32,34.32,0,0,0-.582,4.877c-.221,3.7-.2,8.672-.186,13.062.005,1.52.011,1.694.013,1.786.007.193.01.289.01,1.764,0,2.268-.018,4.969-.15,7.8a62.962,62.962,0,0,1-.689,7.134c-.441,2.78-1.049,5.2-1.637,7.532l-.025.1c-.359,1.431-.73,2.909-1,4.191a45.858,45.858,0,0,0-.8,5.214,39.883,39.883,0,0,0-.129,5.519,39.476,39.476,0,0,0,.735,5.975,26.514,26.514,0,0,0,1.422,4.811,14.429,14.429,0,0,0,1.97,3.425,18.176,18.176,0,0,0,3.044,2.975,38.111,38.111,0,0,0,4.5,3.023,55.191,55.191,0,0,0,5.712,2.88,50.116,50.116,0,0,0,5.513,2.027,44.78,44.78,0,0,0,5.483,1.3,89.339,89.339,0,0,0,10.439.98l.141.007c2.137.1,3.666.165,5.132.165s2.995-.061,5.14-.165l.124-.007a89.258,89.258,0,0,0,10.446-.98,44.7,44.7,0,0,0,5.484-1.3,50.119,50.119,0,0,0,5.513-2.027,55.191,55.191,0,0,0,5.712-2.88,38.1,38.1,0,0,0,4.5-3.025,18.183,18.183,0,0,0,3.046-2.974,14.446,14.446,0,0,0,1.969-3.426,26.488,26.488,0,0,0,1.423-4.811,39.614,39.614,0,0,0,.606-11.492,45.894,45.894,0,0,0-.8-5.214c-.269-1.283-.639-2.763-1-4.192l-.026-.1c-.587-2.337-1.2-4.755-1.636-7.532a64.315,64.315,0,0,1-.689-7.133c-.131-2.832-.15-5.533-.15-7.8,0-1.476,0-1.572.009-1.763,0-.094.009-.27.014-1.787.018-4.389.036-9.365-.186-13.062a34.039,34.039,0,0,0-.583-4.877,11.862,11.862,0,0,0-.8-2.546,7.024,7.024,0,0,0-.861-1.454c-.043-.053-.084-.1-.122-.146l-.146.062a27.285,27.285,0,0,0-4.524,2.676,61.718,61.718,0,0,0-5.945,4.8,161.2,161.2,0,0,0-11.251,11.754c-.066.119-.138.248-.211.383a27.427,27.427,0,0,1-1.661,2.749,13.182,13.182,0,0,1-26.332-.355c-.111-.139-.221-.281-.333-.425-.3-.387-.617-.789-1.016-1.248a167.332,167.332,0,0,0-12.083-12.723l-.152-.139a61.553,61.553,0,0,0-5.938-4.8,27.368,27.368,0,0,0-4.525-2.678l-.146-.061" transform="translate(0)" fill="#fff" fill-rule="evenodd"/>
    <path id="Контур_40" data-name="Контур 40" d="M323.109,391.2a18.7,18.7,0,0,0-1.3-4.422,15.991,15.991,0,0,0-2.515-3.955,17.2,17.2,0,0,0-3.55-3.114,17.623,17.623,0,0,0-4.2-2.042,21.31,21.31,0,0,0-4.985-1,32.41,32.41,0,0,0-5.635.055,26.994,26.994,0,0,0-5.33,1c-.575.177-1.111.37-1.614.578,0-1.4-.007-.308,0-.842.018-4.767.036-9.9-.194-13.725a44.637,44.637,0,0,0-.8-6.471,22.84,22.84,0,0,0-1.541-4.829,17.978,17.978,0,0,0-2.277-3.766,13.837,13.837,0,0,0-3.1-2.893,8.813,8.813,0,0,0-4.506-1.6,12.045,12.045,0,0,0-5.563,1.137,37.553,37.553,0,0,0-6.541,3.794,72.479,72.479,0,0,0-7.022,5.666,191.867,191.867,0,0,0-13.735,14.484h-.015c-.882-.066-1.947-.118-3.2-.147-1.178-.028-2.426-.028-3.668,0-1.32.033-2.53.089-3.548.168l-.292.023A192.478,192.478,0,0,0,224.2,354.76a72.345,72.345,0,0,0-7.021-5.666,37.556,37.556,0,0,0-6.542-3.794,12.036,12.036,0,0,0-5.562-1.137,8.809,8.809,0,0,0-4.506,1.6,13.842,13.842,0,0,0-3.1,2.893,18.019,18.019,0,0,0-2.276,3.766,22.714,22.714,0,0,0-1.541,4.829,44.335,44.335,0,0,0-.8,6.471c-.23,3.828-.211,8.958-.194,13.725,0,.726-.005-1.563-.005,3.535,0,2.846-.023,5.3-.117,7.318a53.067,53.067,0,0,1-.561,5.9c-.339,2.142-.9,4.36-1.457,6.585-.374,1.495-.752,2.994-1.114,4.721a57.063,57.063,0,0,0-.98,6.458,50.165,50.165,0,0,0,.779,14.684,37.6,37.6,0,0,0,2.03,6.831,25.222,25.222,0,0,0,3.475,5.973,28.077,28.077,0,0,0,3.971,4.092c-4.374,3.677-8.5,7.451-11.4,11.7a32.522,32.522,0,0,0-3.878,7.761,34.495,34.495,0,0,0-1.8,8.652,24.373,24.373,0,0,0,.368,6.7,22.591,22.591,0,0,0,2.069,5.848,33.078,33.078,0,0,0,3.28,5.16,18.631,18.631,0,0,0-2.542,2.758,19.352,19.352,0,0,0-2.266,3.92,25.478,25.478,0,0,0-1.573,5.082,44.688,44.688,0,0,0-.739,5.556c-.157,2.1-.2,4.346-.174,6.461.029,1.975.125,3.759.3,5.433a50.462,50.462,0,0,0,.773,5.028c.338,1.645.752,3.266,1.164,4.749s.822,2.818,1.156,3.894l.237.769c.486,1.571.773,2.5.9,3.055a16.71,16.71,0,0,1,.084,2.9c0,1,0,2.406.057,4.725.046,1.907.136,3.834.313,5.254a13.705,13.705,0,0,0,1.125,4.244v.014a9.822,9.822,0,0,0,2.24,3.033,16.262,16.262,0,0,0,3.218,2.394,16.066,16.066,0,0,0,3.694,1.518,23.653,23.653,0,0,0,4.516.714c1.3.093,2.886.122,4.5.151,1.468.025,2.973.052,4.47.065s2.887.013,4.09-.012c1.378-.032,2.509-.089,3.4-.2a12.109,12.109,0,0,0,3.062-.743,9.634,9.634,0,0,0,1.8-.953c.541.253,1.225.547,2.089.853,12.074,4.281,25.43,2.053,37.249-1.78h.015c1.748-.567,2.081.82,4.045,1.78l.007-.012a13.518,13.518,0,0,0,3.021,1.034,30.358,30.358,0,0,0,4.07.6c1.67.146,3.831.244,6.264.217a56.368,56.368,0,0,0,5.986-.362,46.321,46.321,0,0,0,6.28-1.2,31.056,31.056,0,0,0,5.468-1.951,13.478,13.478,0,0,0,3.786-2.605,9.747,9.747,0,0,0,2.132-3.2,11.433,11.433,0,0,0,.814-3.371,37.437,37.437,0,0,0,.116-4c-.005-.743-.019-1.492-.031-2.282-.043-2.7-.1-5.924.084-8.316a28.636,28.636,0,0,1,.74-4.519c.219-.981.457-2.051.7-3.407.359-2.008.719-4.605.972-7.413.219-2.428.36-4.929.36-7.232a63.94,63.94,0,0,0-.432-7.423,47.436,47.436,0,0,0-1.251-6.734,22.469,22.469,0,0,0-1.968-5.044,13.369,13.369,0,0,0-2.961-3.7,19,19,0,0,0-4.639-2.805l-.348-.163c-.062-.451-.127-1.152-.209-2.159-.16-1.951-.33-4.494-.477-6.957-.172-2.908-.319-5.738-.393-7.569-.032-.819-.053-1.447-.057-1.913l.08-.034a29.688,29.688,0,0,0,3.946-1.918,32.51,32.51,0,0,0,3.923-2.786,52.37,52.37,0,0,0,4.029-3.682,44.943,44.943,0,0,0,4.218-4.852,31.983,31.983,0,0,0,3.693-6.344,37.275,37.275,0,0,0,2.329-7.7,71.2,71.2,0,0,0,1.093-8.818c.406-5.929.353-12.882.319-17.251l0-.315c-.015-2.039-.023-3.427.018-4.427l.024-.535c0,.017.008.023.021.015h.013c.134-.081.271-.164.709-.451a14.43,14.43,0,0,0,2.179-1.746,12.961,12.961,0,0,0,2.176-2.8,15.027,15.027,0,0,0,1.475-3.742,20.129,20.129,0,0,0,.6-4.163,22.951,22.951,0,0,0-.293-4.765" transform="translate(0.995 0.995)" fill="#fff" fill-rule="evenodd"/>
    <path id="Контур_41" data-name="Контур 41" d="M205.517,497.022v-8.385a1.945,1.945,0,0,0-1.939-1.938h-.384a1.944,1.944,0,0,0-1.939,1.938v8.385a1.944,1.944,0,0,0,1.939,1.939h.384a1.945,1.945,0,0,0,1.939-1.939" transform="translate(8.958 54.452)" fill="#fc2658" fill-rule="evenodd"/>
    <path id="Контур_42" data-name="Контур 42" d="M247.376,488.047c-1.111-3.76-2.712-8.537-4.461-13.269-1.57-4.244-3.241-8.4-4.755-11.653a44.729,44.729,0,0,0-4.143-7.373,14.722,14.722,0,0,0-3.139-3.3,10.976,10.976,0,0,0-2.8-1.489c-.6-.222-1.193-.4-1.778-.556a13.328,13.328,0,0,1-.312,1.328,14.9,14.9,0,0,1-2.348,4.8,20.458,20.458,0,0,1-3.8,3.9,27.935,27.935,0,0,1-5.584,3.492c-1.858.872-3.8-1.1-5.93-.734-2.257.381-4.382-.765-6.79-1.076a26.409,26.409,0,0,1-5.4-1.364c-.144,2.294-.884,8.6-.36,11.78a68.018,68.018,0,0,0,1.87,7.849c.875,2.985,1.989,6.246,3.276,9.608,1.31,3.423,2.742,6.811,4.136,9.791a79.83,79.83,0,0,0,3.94,7.518,18.526,18.526,0,0,0,2.977,3.9c6.591,8.839,30.4,5.228,35.2-2.664a15.756,15.756,0,0,0,1.508-3.357,19.02,19.02,0,0,0,.811-3.918,19.7,19.7,0,0,0-.169-4.946,60.67,60.67,0,0,0-1.959-8.261" transform="translate(6.839 40.843)" fill="#ffdb29" fill-rule="evenodd"/>
    <path id="Контур_43" data-name="Контур 43" d="M260.95,423.786c-1.781.726-3.525,1.349-5.246,1.87-15.686.4-26.414-4.643-52.068-4.643-2.191-.663-1.105,3.151-3.4,2.153q-.966-.419-1.932-.875A84.666,84.666,0,0,0,201.136,431a14.865,14.865,0,0,0,1.962,3.555,11.447,11.447,0,0,0,2.336,2.169c1.43,1.049,3.118,2.074,4.928,3.17,1.188.721,2.423,1.47,3.59,2.217,8.473,5.415,7.01,8.892,15.477,12.011a18.253,18.253,0,0,1,4.636,2.5,21.758,21.758,0,0,1,4.72,4.88q.479.66.97,1.413c1.323-.354,2.642-.722,3.947-1.129a38.554,38.554,0,0,0,5.086-1.927v-.013a19.7,19.7,0,0,0,4.116-2.563,14.941,14.941,0,0,0,3.134-3.569,21.816,21.816,0,0,0,2.295-5.308,47.428,47.428,0,0,0,1.534-7.514c.648-4.979.9-10.965,1.083-17.1" transform="translate(7.852 29.792)" fill="#0ef2a2" fill-rule="evenodd"/>
    <path id="Контур_44" data-name="Контур 44" d="M237.16,370.7c.208-.265.448-.566.74-.9a125.146,125.146,0,0,1,9-9.464l.109-.1a47.411,47.411,0,0,1,4.585-3.7,22,22,0,0,1,3.775-2.217,3.8,3.8,0,0,1,1.622-.409,1.353,1.353,0,0,1,.644.264,4.728,4.728,0,0,1,1.045,1,7.73,7.73,0,0,1,.966,1.61,11.382,11.382,0,0,1,.766,2.4,27.529,27.529,0,0,1,.474,3.933c.166,2.767.153,6.345.141,9.67-.009,2.29-.018.516-.018,2.572,0,1.94.022,3.728.107,5.552q.023.5.054.985A34.667,34.667,0,0,1,237.16,370.7" transform="translate(22.423 4.654)" fill="#fc2658" fill-rule="evenodd"/>
    <path id="Контур_45" data-name="Контур 45" d="M293.987,378.287c.5-.207,1.039-.4,1.614-.577a27.109,27.109,0,0,1,5.332-1,32.619,32.619,0,0,1,5.634-.055,21.389,21.389,0,0,1,4.986,1,17.664,17.664,0,0,1,4.2,2.042,17.237,17.237,0,0,1,3.548,3.115,15.933,15.933,0,0,1,2.515,3.954,18.719,18.719,0,0,1,1.3,4.422,22.951,22.951,0,0,1,.292,4.766,20.142,20.142,0,0,1-.6,4.163,15.071,15.071,0,0,1-1.475,3.742,12.986,12.986,0,0,1-2.177,2.8,14.375,14.375,0,0,1-2.178,1.746c-.438.287-.575.37-.709.451h-.014c-.012.009-.019,0-.021-.014l-.023.534c-.041,1-.033,2.387-.018,4.428l0,.314c.033,4.37.086,11.323-.319,17.253a71,71,0,0,1-1.094,8.818,37.36,37.36,0,0,1-2.328,7.7,31.947,31.947,0,0,1-3.694,6.343,44.944,44.944,0,0,1-4.218,4.853,52.123,52.123,0,0,1-4.028,3.681,32.679,32.679,0,0,1-3.923,2.786,29.775,29.775,0,0,1-3.946,1.919l-.08.033c0,.466.025,1.094.057,1.914.073,1.83.221,4.66.393,7.569.145,2.463.317,5.006.477,6.957.081,1.007.148,1.707.209,2.158l.347.163a19.012,19.012,0,0,1,4.64,2.807,13.339,13.339,0,0,1,2.96,3.7,22.384,22.384,0,0,1,1.968,5.044,47.441,47.441,0,0,1,1.253,6.735,63.918,63.918,0,0,1,.433,7.422c0,2.3-.142,4.8-.361,7.233-.253,2.808-.612,5.405-.971,7.413-.243,1.355-.481,2.425-.7,3.405a28.65,28.65,0,0,0-.74,4.52c-.179,2.392-.128,5.617-.085,8.316.013.788.025,1.539.032,2.282a37.416,37.416,0,0,1-.117,4,11.443,11.443,0,0,1-.813,3.371,9.742,9.742,0,0,1-2.133,3.2,13.478,13.478,0,0,1-3.785,2.606,31.256,31.256,0,0,1-5.468,1.951,46.136,46.136,0,0,1-6.28,1.2,56.1,56.1,0,0,1-5.987.362c-2.431.028-4.594-.069-6.264-.216a30.329,30.329,0,0,1-4.069-.6A13.547,13.547,0,0,1,264.53,560l0,.012c-1.966-.96-2.3-2.347-4.047-1.78h-.014c-11.82,3.832-25.174,6.062-37.25,1.781-.864-.307-1.546-.6-2.088-.854a9.61,9.61,0,0,1-1.8.954,12.212,12.212,0,0,1-3.063.743c-.894.11-2.025.167-3.4.2-1.2.026-2.606.026-4.09.013s-3-.04-4.471-.066c-1.618-.029-3.2-.057-4.5-.151a23.632,23.632,0,0,1-4.515-.713,16,16,0,0,1-3.694-1.519,16.259,16.259,0,0,1-3.218-2.393,9.819,9.819,0,0,1-2.24-3.033v-.014a13.682,13.682,0,0,1-1.125-4.245c-.176-1.42-.266-3.347-.314-5.254-.056-2.319-.056-3.722-.056-4.725a16.681,16.681,0,0,0-.084-2.9c-.125-.56-.413-1.485-.9-3.057l-.238-.768c-.333-1.078-.74-2.4-1.155-3.9s-.828-3.1-1.164-4.748a50.165,50.165,0,0,1-.773-5.029c-.172-1.674-.269-3.457-.3-5.432-.031-2.114.016-4.361.173-6.462a44.635,44.635,0,0,1,.74-5.555,25.492,25.492,0,0,1,1.572-5.083,19.386,19.386,0,0,1,2.267-3.92,18.621,18.621,0,0,1,2.542-2.757,33,33,0,0,1-3.28-5.16,22.509,22.509,0,0,1-2.069-5.848,24.337,24.337,0,0,1-.368-6.7A34.489,34.489,0,0,1,183.4,463a32.5,32.5,0,0,1,3.878-7.761c2.906-4.245,7.031-8.019,11.4-11.7a28.02,28.02,0,0,1-3.971-4.092,25.209,25.209,0,0,1-3.474-5.972,37.623,37.623,0,0,1-2.03-6.831,50.228,50.228,0,0,1-.78-14.685,57.032,57.032,0,0,1,.981-6.456c.361-1.728.739-3.227,1.114-4.722.559-2.225,1.117-4.443,1.457-6.584a53.328,53.328,0,0,0,.561-5.9c.092-2.015.117-4.471.117-7.317,0-5.1.008-2.81,0-3.536-.018-4.766-.036-9.9.194-13.725a44.636,44.636,0,0,1,.8-6.471,22.742,22.742,0,0,1,1.542-4.83,18.037,18.037,0,0,1,2.275-3.765,13.844,13.844,0,0,1,3.1-2.893,8.819,8.819,0,0,1,4.5-1.6,12.041,12.041,0,0,1,5.563,1.138,37.424,37.424,0,0,1,6.541,3.793,72.347,72.347,0,0,1,7.022,5.666,192.471,192.471,0,0,1,13.776,14.531l.293-.023c1.018-.079,2.229-.134,3.547-.167,1.244-.031,2.491-.032,3.668,0q1.885.046,3.205.149h.014a191.868,191.868,0,0,1,13.736-14.484,72.474,72.474,0,0,1,7.021-5.666,37.47,37.47,0,0,1,6.542-3.793,12.057,12.057,0,0,1,5.563-1.138,8.815,8.815,0,0,1,4.5,1.6,13.84,13.84,0,0,1,3.1,2.893,18,18,0,0,1,2.276,3.765,22.75,22.75,0,0,1,1.541,4.83,44.487,44.487,0,0,1,.8,6.471c.23,3.829.211,8.959.194,13.725,0,.534,0-.559,0,.842m-40.894-1.89v.571a9.534,9.534,0,1,1-19.068,0v-.95c-.622-.56-1.169-1.437-2.245-2.678a171.841,171.841,0,0,0-12.367-13.014l-.151-.138a64.881,64.881,0,0,0-6.3-5.091,30.243,30.243,0,0,0-5.192-3.048,5.234,5.234,0,0,0-2.23-.563,1.867,1.867,0,0,0-.886.364,6.537,6.537,0,0,0-1.436,1.37,10.606,10.606,0,0,0-1.327,2.214,15.624,15.624,0,0,0-1.053,3.306,37.574,37.574,0,0,0-.653,5.407c-.229,3.8-.21,8.724-.194,13.295.012,3.151.023.711.023,3.536,0,2.668-.029,5.126-.145,7.633a60.28,60.28,0,0,1-.647,6.729c-.416,2.617-.993,4.913-1.572,7.217-.383,1.522-.767,3.051-1.058,4.433a49.924,49.924,0,0,0-.864,5.624,43.313,43.313,0,0,0,.665,12.559,30.164,30.164,0,0,0,1.627,5.479,18.043,18.043,0,0,0,2.469,4.279,21.77,21.77,0,0,0,3.648,3.581,41.784,41.784,0,0,0,4.937,3.321,59.529,59.529,0,0,0,6.09,3.072,54.236,54.236,0,0,0,5.912,2.173,48.721,48.721,0,0,0,5.927,1.4,92.426,92.426,0,0,0,10.874,1.027l.132.007a83.251,83.251,0,0,0,10.636,0l.132-.007a92.427,92.427,0,0,0,10.874-1.027,48.77,48.77,0,0,0,5.927-1.4,54.318,54.318,0,0,0,5.912-2.173,59.526,59.526,0,0,0,6.09-3.072,41.768,41.768,0,0,0,4.936-3.321,21.779,21.779,0,0,0,3.649-3.581,18.039,18.039,0,0,0,2.468-4.279,30.157,30.157,0,0,0,1.628-5.479,43.31,43.31,0,0,0,.665-12.559,50.163,50.163,0,0,0-.865-5.624c-.289-1.382-.674-2.911-1.057-4.433-.579-2.3-1.157-4.6-1.572-7.217a60.306,60.306,0,0,1-.647-6.729c-.117-2.507-.146-4.965-.146-7.633,0-2.825.012-.385.023-3.536.018-4.571.036-9.491-.193-13.295a37.555,37.555,0,0,0-.654-5.407,15.562,15.562,0,0,0-1.052-3.306,10.653,10.653,0,0,0-1.327-2.214,6.562,6.562,0,0,0-1.436-1.37,1.867,1.867,0,0,0-.886-.364,5.238,5.238,0,0,0-2.23.563,30.242,30.242,0,0,0-5.192,3.048,64.753,64.753,0,0,0-6.3,5.091A166.257,166.257,0,0,0,255.607,372.5c-.577.99-1.677,3.212-2.514,3.893m-50.639,73.548a51.776,51.776,0,0,0-9.113,9.425,25.173,25.173,0,0,0-3.016,6.008,27.09,27.09,0,0,0-1.4,6.784,17.359,17.359,0,0,0,.225,4.746,15.452,15.452,0,0,0,1.437,3.981,25.758,25.758,0,0,0,2.749,4.24,33.256,33.256,0,0,0,3.838,4.1,37.049,37.049,0,0,0,5.024,3.807,31.408,31.408,0,0,0,5.253,2.687,23.419,23.419,0,0,0,5.493,1.455,16.647,16.647,0,0,0,4.912-.055,16.028,16.028,0,0,0,4.116-1.313,20.5,20.5,0,0,0,4.09-2.574,13.411,13.411,0,0,0,2.475-2.494,7.577,7.577,0,0,0,1.2-2.453v-.013a7.385,7.385,0,0,0,.225-2.951,6.458,6.458,0,0,0-.937-2.577,13.1,13.1,0,0,0-2.747-2.952,42.8,42.8,0,0,0-4.273-3.043c-1.216-.778-2.354-1.467-3.447-2.131-2.035-1.234-3.936-2.386-5.472-3.514a18.445,18.445,0,0,1-3.772-3.548,21.8,21.8,0,0,1-2.967-5.278,112.584,112.584,0,0,1-3.9-12.336M316.229,408.79c.024-.171.145-.542.019-.233a1.671,1.671,0,0,0-.019.233M206.218,503.084a33.705,33.705,0,0,0,.386,7.966,67.7,67.7,0,0,0,1.868,7.85c.876,2.985,1.989,6.246,3.277,9.608,1.31,3.423,2.742,6.81,4.136,9.791a79.579,79.579,0,0,0,3.94,7.518,18.494,18.494,0,0,0,2.977,3.9c6.591,8.839,30.4,5.228,35.2-2.664a15.756,15.756,0,0,0,1.507-3.357,18.935,18.935,0,0,0,.811-3.917,19.648,19.648,0,0,0-.168-4.947,60.7,60.7,0,0,0-1.959-8.261c-1.111-3.76-2.712-8.537-4.462-13.268-1.569-4.245-3.24-8.4-4.754-11.653a44.617,44.617,0,0,0-4.143-7.374,14.745,14.745,0,0,0-3.139-3.3,10.98,10.98,0,0,0-2.8-1.489c-.6-.222-1.194-.4-1.778-.556q-.125.68-.308,1.33h0a14.9,14.9,0,0,1-2.345,4.8,20.531,20.531,0,0,1-3.8,3.9,27.927,27.927,0,0,1-5.584,3.493,23.3,23.3,0,0,1-6.013,1.916,23.878,23.878,0,0,1-7.038.084,30.24,30.24,0,0,1-5.812-1.363m10.015,50.337a30.979,30.979,0,0,1-2.67-3.783,87.646,87.646,0,0,1-4.315-8.236c-1.549-3.312-3.059-6.868-4.365-10.279-1.322-3.452-2.493-6.9-3.448-10.154a75.541,75.541,0,0,1-2.07-8.741,43.673,43.673,0,0,1-.223-12.466q-.424-.256-.844-.52a44.418,44.418,0,0,1-5.973-4.531,11.281,11.281,0,0,0-3.09,4.252,18.158,18.158,0,0,0-1.113,3.617,37.909,37.909,0,0,0-.6,4.636c-.152,2.03-.2,4.038-.174,5.829.024,1.676.112,3.244.269,4.771a42.8,42.8,0,0,0,.658,4.31c.293,1.428.668,2.894,1.049,4.261s.774,2.645,1.1,3.695l.238.768c.534,1.725.848,2.741,1.041,3.6a17.109,17.109,0,0,1,.285,4.507c0,1.415,0,3.4.029,4.554.039,1.565.119,3.2.284,4.535a7.168,7.168,0,0,0,.459,2.022l.005,0a3.018,3.018,0,0,0,.689.879,8.834,8.834,0,0,0,1.753,1.3,8.721,8.721,0,0,0,2,.829,16.727,16.727,0,0,0,3.108.455c1.433.1,2.755.128,4.1.151,1.5.026,3.029.054,4.413.066,1.4.013,2.73.013,3.889-.013a26.069,26.069,0,0,0,2.657-.169,8.234,8.234,0,0,0,.857-.143m64.133-104.243v.01c-.214,7.448-.426,14.9-1.237,21.113a54.794,54.794,0,0,1-1.763,8.664,28.948,28.948,0,0,1-3.128,7.088,22.184,22.184,0,0,1-4.655,5.322,26.894,26.894,0,0,1-5.64,3.569l-.007-.012a45.169,45.169,0,0,1-6.057,2.326c-.823.256-1.662.5-2.511.737q.135.286.271.579c1.609,3.462,3.358,7.8,4.985,12.2,1.775,4.8,3.43,9.746,4.605,13.728a67.976,67.976,0,0,1,2.189,9.295,26.674,26.674,0,0,1,.2,6.7,26.365,26.365,0,0,1-1.127,5.439,23.252,23.252,0,0,1-2.225,4.937l-.023.036a6.046,6.046,0,0,1,1.868,1.251l.2.184a6.169,6.169,0,0,0,1.436,1.065v.014a6.4,6.4,0,0,0,1.418.461,24.159,24.159,0,0,0,3.094.427c1.623.142,3.584.238,5.574.215a48.083,48.083,0,0,0,5.183-.332,39.048,39.048,0,0,0,5.274-1,23.927,23.927,0,0,0,4.146-1.464,6.393,6.393,0,0,0,1.776-1.17,2.584,2.584,0,0,0,.553-.847,4.512,4.512,0,0,0,.3-1.3,30.351,30.351,0,0,0,.087-3.2c0-.623-.018-1.4-.031-2.224-.047-2.948-.1-6.467.084-8.977a35.5,35.5,0,0,1,.912-5.555c.2-.911.425-1.906.642-3.118.328-1.83.656-4.2.886-6.751.184-2.044.3-4.3.3-6.6a56.739,56.739,0,0,0-.375-6.589,39.854,39.854,0,0,0-1.05-5.672,15.223,15.223,0,0,0-1.279-3.378,6.214,6.214,0,0,0-1.352-1.724,13.052,13.052,0,0,0-2.944-1.714c-.433-.2-.824-.385-1.192-.582a5.135,5.135,0,0,1-2.869-3.262,18.8,18.8,0,0,1-.719-4.538c-.138-1.689-.312-4.326-.477-7.1-.161-2.724-.308-5.6-.392-7.713a21.605,21.605,0,0,1,.1-4.476,4.632,4.632,0,0,1,2.684-3.725,16.532,16.532,0,0,1,1.751-.811,23.43,23.43,0,0,0,3.028-1.461,25.036,25.036,0,0,0,3.031-2.154,44.655,44.655,0,0,0,3.455-3.162,37.745,37.745,0,0,0,3.529-4.049A24.744,24.744,0,0,0,305.725,445a30.389,30.389,0,0,0,1.84-6.21,63.858,63.858,0,0,0,.977-7.9c.4-5.871.352-12.53.319-16.721l0-.315c-.016-2.208-.025-3.708.018-4.756a9.447,9.447,0,0,1,.591-3.325,5.931,5.931,0,0,1,2.977-3.163l0-.007.507-.308a7,7,0,0,0,1.059-.855,5.671,5.671,0,0,0,.941-1.218,7.736,7.736,0,0,0,.757-1.9,12.889,12.889,0,0,0,.37-2.642,15.691,15.691,0,0,0-.2-3.27,11.245,11.245,0,0,0-.78-2.67,8.491,8.491,0,0,0-1.336-2.117,9.914,9.914,0,0,0-2.055-1.793,10.443,10.443,0,0,0-2.473-1.208,14.074,14.074,0,0,0-3.262-.631,25.126,25.126,0,0,0-4.371.026,19.538,19.538,0,0,0-3.837.709,10.394,10.394,0,0,0-2.55,1.187c-.409.26-.791.533-1.158.811q.023.832.057,1.582a53.343,53.343,0,0,0,.561,5.9c.34,2.141.9,4.359,1.457,6.584.375,1.495.753,2.994,1.114,4.722a57.267,57.267,0,0,1,.981,6.456,50.229,50.229,0,0,1-.78,14.685,37.626,37.626,0,0,1-2.03,6.831,25.212,25.212,0,0,1-3.475,5.972,28.808,28.808,0,0,1-4.854,4.816,49.07,49.07,0,0,1-5.827,3.925c-.632.367-1.09.357-.887.991M244.029,457A10.247,10.247,0,0,1,246.2,477.06v-6.024a2.625,2.625,0,0,0-2.616-2.617h-.518a2.625,2.625,0,0,0-2.617,2.617v6.024A10.247,10.247,0,0,1,242.617,457c-1.509-.013-3.064-.065-4.957-.159l-.132-.006a99.916,99.916,0,0,1-11.764-1.114,55.855,55.855,0,0,1-6.818-1.6,61.647,61.647,0,0,1-6.715-2.489q-.966-.419-1.932-.875a84.65,84.65,0,0,0,2.833,8.709,14.863,14.863,0,0,0,1.961,3.555,11.566,11.566,0,0,0,2.336,2.169c1.43,1.049,3.119,2.073,4.928,3.17,1.189.72,2.424,1.469,3.591,2.217a49.75,49.75,0,0,1,5.019,3.589,20.325,20.325,0,0,1,4.3,4.7c.559.9,1.13,2.3,2.106,2.575a35.1,35.1,0,0,1,4.054,1.143,18.215,18.215,0,0,1,4.635,2.5,21.737,21.737,0,0,1,4.721,4.88q.479.659.97,1.412c1.322-.354,2.642-.721,3.946-1.128a38.5,38.5,0,0,0,5.087-1.926v-.015a19.57,19.57,0,0,0,4.116-2.563,14.913,14.913,0,0,0,3.134-3.568,21.816,21.816,0,0,0,2.295-5.308,47.447,47.447,0,0,0,1.533-7.515c.649-4.978.9-10.964,1.084-17.1-1.781.725-3.525,1.348-5.246,1.869a55.838,55.838,0,0,1-6.817,1.6,99.894,99.894,0,0,1-11.764,1.114l-.133.006c-1.892.094-3.446.146-4.956.159" transform="translate(0.995 0.995)" fill-rule="evenodd"/>
    <path id="Контур_46" data-name="Контур 46" d="M208.561,384.242h11.314a2.624,2.624,0,0,1,2.616,2.616v.519a2.624,2.624,0,0,1-2.616,2.616H208.561a2.624,2.624,0,0,1-2.616-2.616v-.519a2.624,2.624,0,0,1,2.616-2.616" transform="translate(10.717 16.032)" fill-rule="evenodd"/>
    <path id="Контур_47" data-name="Контур 47" d="M236.525,384.242h11.314a2.624,2.624,0,0,1,2.616,2.616v.519a2.624,2.624,0,0,1-2.616,2.616H236.525a2.624,2.624,0,0,1-2.616-2.616v-.519a2.624,2.624,0,0,1,2.616-2.616" transform="translate(21.204 16.032)" fill-rule="evenodd"/>
    <path id="Контур_48" data-name="Контур 48" d="M231.251,402.946v11.186a2.624,2.624,0,0,1-2.616,2.616h-.52a2.624,2.624,0,0,1-2.616-2.616V403.407c-1.142-1.5-2.153-2.829-3.488-4.292-2.281-2.5-3.41-3.948,1.012-3.729,3.048.153,6.249.211,9.3.1l.227-.011c2.782-.132,5.42-.346,2.547,2.861-1.057,1.179-1.987,2.226-2.981,3.465-.219.274-.525.688-.865,1.147" transform="translate(15.989 20.202)" fill="#fc2658" fill-rule="evenodd"/>
    <path id="Контур_49" data-name="Контур 49" d="M207.5,465.9l20.43-6.876c3.323-1.118,5.158,4.333,1.835,5.452l-20.43,6.876c-3.323,1.118-5.158-4.333-1.835-5.452" transform="translate(10.64 44.018)" fill-rule="evenodd"/>
    <path id="Контур_50" data-name="Контур 50" d="M211.163,476.444l20.43-6.876c3.323-1.118,5.158,4.333,1.835,5.452L213,481.9c-3.323,1.118-5.158-4.333-1.835-5.452" transform="translate(12.016 47.972)" fill-rule="evenodd"/>
    <path id="Контур_51" data-name="Контур 51" d="M214.831,486.987l20.43-6.876c3.323-1.118,5.158,4.333,1.835,5.451l-20.43,6.876c-3.322,1.118-5.158-4.333-1.835-5.451" transform="translate(13.391 51.926)" fill-rule="evenodd"/>
    <path id="Контур_52" data-name="Контур 52" d="M220.888,370.7c-.208-.265-.447-.566-.74-.9a125.152,125.152,0,0,0-9-9.464l-.11-.1a47.27,47.27,0,0,0-4.584-3.7,22,22,0,0,0-3.775-2.217,3.8,3.8,0,0,0-1.622-.409,1.361,1.361,0,0,0-.645.264,4.748,4.748,0,0,0-1.043,1,7.684,7.684,0,0,0-.966,1.61,11.382,11.382,0,0,0-.766,2.4,27.372,27.372,0,0,0-.474,3.933c-.166,2.767-.153,6.345-.141,9.67.009,2.29.017.516.017,2.572,0,1.94-.021,3.728-.106,5.552q-.023.5-.054.985A34.665,34.665,0,0,0,220.888,370.7" transform="translate(7.319 4.654)" fill="#fc2658" fill-rule="evenodd"/>
    <path id="Контур_53" data-name="Контур 53" d="M216.152,445.768c-2.036-1.235-3.936-2.386-5.473-3.514a18.47,18.47,0,0,1-3.772-3.548,21.8,21.8,0,0,1-2.966-5.278,112.418,112.418,0,0,1-3.9-12.336,51.776,51.776,0,0,0-9.113,9.425,25.153,25.153,0,0,0-3.016,6.008,27.09,27.09,0,0,0-1.4,6.784,17.406,17.406,0,0,0,.223,4.746,15.524,15.524,0,0,0,1.437,3.981,25.818,25.818,0,0,0,2.751,4.24,33.32,33.32,0,0,0,3.837,4.1,37.13,37.13,0,0,0,5.026,3.807,31.4,31.4,0,0,0,5.253,2.686,23.407,23.407,0,0,0,5.493,1.456,16.647,16.647,0,0,0,4.912-.055,15.989,15.989,0,0,0,4.116-1.314,20.484,20.484,0,0,0,4.09-2.573,13.443,13.443,0,0,0,2.475-2.494,7.61,7.61,0,0,0,1.2-2.453v-.014a7.358,7.358,0,0,0,.223-2.95,6.444,6.444,0,0,0-.936-2.577,13.081,13.081,0,0,0-2.747-2.952A42.8,42.8,0,0,0,219.6,447.9c-1.217-.778-2.354-1.468-3.447-2.131" transform="translate(3.408 29.85)" fill="#fff" fill-rule="evenodd"/>
    <path id="Контур_54" data-name="Контур 54" d="M247.668,497.745V489.36a1.944,1.944,0,0,1,1.939-1.938h.384a1.944,1.944,0,0,1,1.939,1.938v8.385a1.945,1.945,0,0,1-1.939,1.939h-.384a1.945,1.945,0,0,1-1.939-1.939" transform="translate(26.363 54.724)" fill="#fc2658" fill-rule="evenodd"/>
    <path id="Контур_55" data-name="Контур 55" d="M255.384,496.781V488.4a1.944,1.944,0,0,1,1.939-1.938h.384a1.945,1.945,0,0,1,1.94,1.938v8.385a1.946,1.946,0,0,1-1.94,1.939h-.384a1.945,1.945,0,0,1-1.939-1.939" transform="translate(29.257 54.362)" fill="#fc2658" fill-rule="evenodd"/>
    <path id="Контур_56" data-name="Контур 56" d="M197.8,496.057v-8.385a1.945,1.945,0,0,0-1.939-1.938h-.384a1.945,1.945,0,0,0-1.939,1.938v8.385A1.945,1.945,0,0,0,195.478,498h.384a1.945,1.945,0,0,0,1.939-1.939" transform="translate(6.065 54.091)" fill="#fc2658" fill-rule="evenodd"/>
    <path id="Контур_57" data-name="Контур 57" d="M265.51,389.607v-8.385a1.944,1.944,0,0,1,1.939-1.938h.384a1.945,1.945,0,0,1,1.94,1.938v8.385a1.946,1.946,0,0,1-1.94,1.939h-.384a1.945,1.945,0,0,1-1.939-1.939" transform="translate(33.054 14.172)" fill="#fc2658" fill-rule="evenodd"/>
    <path id="Контур_58" data-name="Контур 58" d="M228.9,447.239a10.609,10.609,0,1,0-10.609-10.609A10.63,10.63,0,0,0,228.9,447.239" transform="translate(15.348 31.699)" fill="#fff" fill-rule="evenodd"/>
    <path id="Контур_59" data-name="Контур 59" d="M227,446.932a10.611,10.611,0,0,1-1.327-20.545A10.612,10.612,0,0,1,227,446.932" transform="translate(15.348 31.836)" fill="#ffdb29" fill-rule="evenodd"/>
    <path id="Контур_60" data-name="Контур 60" d="M218.958,366.949h20.388v9.78a9.808,9.808,0,0,1-9.779,9.779h-.829a9.809,9.809,0,0,1-9.78-9.779Z" transform="translate(15.597 9.547)" fill="#ffdb29" fill-rule="evenodd"/>
  </g>
</svg>
