<svg id="Сгруппировать_9" data-name="Сгруппировать 9" xmlns="http://www.w3.org/2000/svg" width="528" height="85" viewBox="0 0 528 85">
  <path id="Контур_292" data-name="Контур 292" d="M220.327,863.852a7.084,7.084,0,0,1-7.094-7.094h0a7.1,7.1,0,0,1,7.094-7.093h0a7.1,7.1,0,0,1,7.093,7.093h0A7.084,7.084,0,0,1,220.327,863.852Z" transform="translate(-76.215 -849.665)" fill="#fff" fill-rule="evenodd"/>
  <path id="Контур_293" data-name="Контур 293" d="M220.327,899.322a7.084,7.084,0,0,1-7.094-7.094h0a7.085,7.085,0,0,1,7.094-7.1h0a7.085,7.085,0,0,1,7.093,7.1h0A7.084,7.084,0,0,1,220.327,899.322Z" transform="translate(-76.215 -849.728)" fill="#fff" fill-rule="evenodd"/>
  <path id="Контур_294" data-name="Контур 294" d="M220.327,934.791a7.083,7.083,0,0,1-7.094-7.093h0a7.1,7.1,0,0,1,7.094-7.094h0a7.1,7.1,0,0,1,7.093,7.094h0A7.083,7.083,0,0,1,220.327,934.791Z" transform="translate(-76.215 -849.791)" fill="#fff" fill-rule="evenodd"/>
  <path id="Контур_298" data-name="Контур 298" d="M186.038,863.852a7.084,7.084,0,0,1-7.093-7.094h0a7.1,7.1,0,0,1,7.093-7.093h0a7.1,7.1,0,0,1,7.1,7.093h0A7.085,7.085,0,0,1,186.038,863.852Z" transform="translate(-76.182 -849.665)" fill="#fff" fill-rule="evenodd"/>
  <path id="Контур_299" data-name="Контур 299" d="M186.038,899.322a7.084,7.084,0,0,1-7.093-7.094h0a7.085,7.085,0,0,1,7.093-7.1h0a7.086,7.086,0,0,1,7.1,7.1h0A7.085,7.085,0,0,1,186.038,899.322Z" transform="translate(-76.182 -849.728)" fill="#fff" fill-rule="evenodd"/>
  <path id="Контур_300" data-name="Контур 300" d="M186.038,934.791a7.083,7.083,0,0,1-7.093-7.093h0a7.1,7.1,0,0,1,7.093-7.094h0a7.1,7.1,0,0,1,7.1,7.094h0A7.084,7.084,0,0,1,186.038,934.791Z" transform="translate(-76.182 -849.791)" fill="#fff" fill-rule="evenodd"/>
  <path id="Контур_304" data-name="Контур 304" d="M151.751,863.852a7.085,7.085,0,0,1-7.094-7.094h0a7.1,7.1,0,0,1,7.094-7.093h0a7.1,7.1,0,0,1,7.094,7.093h0A7.084,7.084,0,0,1,151.751,863.852Z" transform="translate(-76.083 -849.665)" fill="#fff" fill-rule="evenodd"/>
  <path id="Контур_305" data-name="Контур 305" d="M151.751,899.322a7.085,7.085,0,0,1-7.094-7.094h0a7.086,7.086,0,0,1,7.094-7.1h0a7.085,7.085,0,0,1,7.094,7.1h0A7.084,7.084,0,0,1,151.751,899.322Z" transform="translate(-76.083 -849.728)" fill="#fff" fill-rule="evenodd"/>
  <path id="Контур_306" data-name="Контур 306" d="M151.751,934.791a7.084,7.084,0,0,1-7.094-7.093h0a7.1,7.1,0,0,1,7.094-7.094h0a7.1,7.1,0,0,1,7.094,7.094h0A7.083,7.083,0,0,1,151.751,934.791Z" transform="translate(-76.083 -849.791)" fill="#fff" fill-rule="evenodd"/>
  <path id="Контур_310" data-name="Контур 310" d="M117.465,863.852a7.085,7.085,0,0,1-7.095-7.094h0a7.1,7.1,0,0,1,7.095-7.093h0a7.1,7.1,0,0,1,7.093,7.093h0A7.084,7.084,0,0,1,117.465,863.852Z" transform="translate(-76.083 -849.665)" fill="#fff" fill-rule="evenodd"/>
  <path id="Контур_311" data-name="Контур 311" d="M117.465,899.322a7.085,7.085,0,0,1-7.095-7.094h0a7.086,7.086,0,0,1,7.095-7.1h0a7.085,7.085,0,0,1,7.093,7.1h0A7.084,7.084,0,0,1,117.465,899.322Z" transform="translate(-76.083 -849.728)" fill="#fff" fill-rule="evenodd"/>
  <path id="Контур_312" data-name="Контур 312" d="M117.465,934.791a7.084,7.084,0,0,1-7.095-7.093h0a7.1,7.1,0,0,1,7.095-7.094h0a7.1,7.1,0,0,1,7.093,7.094h0A7.083,7.083,0,0,1,117.465,934.791Z" transform="translate(-76.083 -849.791)" fill="#fff" fill-rule="evenodd"/>
  <path id="Контур_316" data-name="Контур 316" d="M83.177,863.852a7.084,7.084,0,0,1-7.094-7.094h0a7.1,7.1,0,0,1,7.094-7.093h0a7.1,7.1,0,0,1,7.094,7.093h0A7.085,7.085,0,0,1,83.177,863.852Z" transform="translate(-76.083 -849.665)" fill="#fff" fill-rule="evenodd"/>
  <path id="Контур_317" data-name="Контур 317" d="M83.177,899.322a7.084,7.084,0,0,1-7.094-7.094h0a7.085,7.085,0,0,1,7.094-7.1h0a7.086,7.086,0,0,1,7.094,7.1h0A7.085,7.085,0,0,1,83.177,899.322Z" transform="translate(-76.083 -849.728)" fill="#fff" fill-rule="evenodd"/>
  <path id="Контур_318" data-name="Контур 318" d="M83.177,934.791a7.083,7.083,0,0,1-7.094-7.093h0a7.1,7.1,0,0,1,7.094-7.094h0a7.1,7.1,0,0,1,7.094,7.094h0A7.084,7.084,0,0,1,83.177,934.791Z" transform="translate(-76.083 -849.791)" fill="#fff" fill-rule="evenodd"/>
  <path id="Контур_322" data-name="Контур 322" d="M391.763,863.852a7.084,7.084,0,0,1-7.094-7.094h0a7.1,7.1,0,0,1,7.094-7.093h0a7.1,7.1,0,0,1,7.093,7.093h0A7.084,7.084,0,0,1,391.763,863.852Z" transform="translate(-76.381 -849.665)" fill="#fff" fill-rule="evenodd"/>
  <path id="Контур_323" data-name="Контур 323" d="M391.763,899.322a7.084,7.084,0,0,1-7.094-7.094h0a7.085,7.085,0,0,1,7.094-7.1h0a7.085,7.085,0,0,1,7.093,7.1h0A7.084,7.084,0,0,1,391.763,899.322Z" transform="translate(-76.381 -849.728)" fill="#fff" fill-rule="evenodd"/>
  <path id="Контур_324" data-name="Контур 324" d="M391.763,934.791a7.083,7.083,0,0,1-7.094-7.093h0a7.1,7.1,0,0,1,7.094-7.094h0a7.1,7.1,0,0,1,7.093,7.094h0A7.083,7.083,0,0,1,391.763,934.791Z" transform="translate(-76.381 -849.791)" fill="#fff" fill-rule="evenodd"/>
  <path id="Контур_328" data-name="Контур 328" d="M357.474,863.852a7.084,7.084,0,0,1-7.093-7.094h0a7.1,7.1,0,0,1,7.093-7.093h0a7.1,7.1,0,0,1,7.1,7.093h0A7.085,7.085,0,0,1,357.474,863.852Z" transform="translate(-76.348 -849.665)" fill="#fff" fill-rule="evenodd"/>
  <path id="Контур_329" data-name="Контур 329" d="M357.474,899.322a7.084,7.084,0,0,1-7.093-7.094h0a7.085,7.085,0,0,1,7.093-7.1h0a7.086,7.086,0,0,1,7.1,7.1h0A7.085,7.085,0,0,1,357.474,899.322Z" transform="translate(-76.348 -849.728)" fill="#fff" fill-rule="evenodd"/>
  <path id="Контур_330" data-name="Контур 330" d="M357.474,934.791a7.083,7.083,0,0,1-7.093-7.093h0a7.1,7.1,0,0,1,7.093-7.094h0a7.1,7.1,0,0,1,7.1,7.094h0A7.084,7.084,0,0,1,357.474,934.791Z" transform="translate(-76.348 -849.791)" fill="#fff" fill-rule="evenodd"/>
  <path id="Контур_334" data-name="Контур 334" d="M323.187,863.852a7.085,7.085,0,0,1-7.094-7.094h0a7.1,7.1,0,0,1,7.094-7.093h0a7.1,7.1,0,0,1,7.094,7.093h0A7.084,7.084,0,0,1,323.187,863.852Z" transform="translate(-76.314 -849.665)" fill="#fff" fill-rule="evenodd"/>
  <path id="Контур_335" data-name="Контур 335" d="M323.187,899.322a7.085,7.085,0,0,1-7.094-7.094h0a7.086,7.086,0,0,1,7.094-7.1h0a7.085,7.085,0,0,1,7.094,7.1h0A7.084,7.084,0,0,1,323.187,899.322Z" transform="translate(-76.314 -849.728)" fill="#fff" fill-rule="evenodd"/>
  <path id="Контур_336" data-name="Контур 336" d="M323.187,934.791a7.084,7.084,0,0,1-7.094-7.093h0a7.1,7.1,0,0,1,7.094-7.094h0a7.1,7.1,0,0,1,7.094,7.094h0A7.083,7.083,0,0,1,323.187,934.791Z" transform="translate(-76.314 -849.791)" fill="#fff" fill-rule="evenodd"/>
  <path id="Контур_340" data-name="Контур 340" d="M288.9,863.852a7.085,7.085,0,0,1-7.1-7.094h0a7.1,7.1,0,0,1,7.1-7.093h0a7.1,7.1,0,0,1,7.093,7.093h0A7.084,7.084,0,0,1,288.9,863.852Z" transform="translate(-76.281 -849.665)" fill="#fff" fill-rule="evenodd"/>
  <path id="Контур_341" data-name="Контур 341" d="M288.9,899.322a7.085,7.085,0,0,1-7.1-7.094h0a7.086,7.086,0,0,1,7.1-7.1h0a7.085,7.085,0,0,1,7.093,7.1h0A7.084,7.084,0,0,1,288.9,899.322Z" transform="translate(-76.281 -849.728)" fill="#fff" fill-rule="evenodd"/>
  <path id="Контур_342" data-name="Контур 342" d="M288.9,934.791a7.084,7.084,0,0,1-7.1-7.093h0a7.1,7.1,0,0,1,7.1-7.094h0a7.1,7.1,0,0,1,7.093,7.094h0A7.083,7.083,0,0,1,288.9,934.791Z" transform="translate(-76.281 -849.791)" fill="#fff" fill-rule="evenodd"/>
  <path id="Контур_346" data-name="Контур 346" d="M254.613,863.852a7.084,7.084,0,0,1-7.094-7.094h0a7.1,7.1,0,0,1,7.094-7.093h0a7.1,7.1,0,0,1,7.094,7.093h0A7.085,7.085,0,0,1,254.613,863.852Z" transform="translate(-76.248 -849.665)" fill="#fff" fill-rule="evenodd"/>
  <path id="Контур_347" data-name="Контур 347" d="M254.613,899.322a7.084,7.084,0,0,1-7.094-7.094h0a7.085,7.085,0,0,1,7.094-7.1h0a7.086,7.086,0,0,1,7.094,7.1h0A7.085,7.085,0,0,1,254.613,899.322Z" transform="translate(-76.248 -849.728)" fill="#fff" fill-rule="evenodd"/>
  <path id="Контур_348" data-name="Контур 348" d="M254.613,934.791a7.083,7.083,0,0,1-7.094-7.093h0a7.1,7.1,0,0,1,7.094-7.094h0a7.1,7.1,0,0,1,7.094,7.094h0A7.084,7.084,0,0,1,254.613,934.791Z" transform="translate(-76.248 -849.791)" fill="#fff" fill-rule="evenodd"/>
  <path id="Контур_352" data-name="Контур 352" d="M563.2,863.852a7.084,7.084,0,0,1-7.094-7.094h0a7.1,7.1,0,0,1,7.094-7.093h0a7.1,7.1,0,0,1,7.093,7.093h0A7.084,7.084,0,0,1,563.2,863.852Z" transform="translate(-76.579 -849.665)" fill="#fff" fill-rule="evenodd"/>
  <path id="Контур_353" data-name="Контур 353" d="M563.2,899.322a7.084,7.084,0,0,1-7.094-7.094h0a7.085,7.085,0,0,1,7.094-7.1h0a7.085,7.085,0,0,1,7.093,7.1h0A7.084,7.084,0,0,1,563.2,899.322Z" transform="translate(-76.579 -849.728)" fill="#fff" fill-rule="evenodd"/>
  <path id="Контур_354" data-name="Контур 354" d="M563.2,934.791A7.083,7.083,0,0,1,556.1,927.7h0A7.1,7.1,0,0,1,563.2,920.6h0a7.1,7.1,0,0,1,7.093,7.094h0A7.083,7.083,0,0,1,563.2,934.791Z" transform="translate(-76.579 -849.791)" fill="#fff" fill-rule="evenodd"/>
  <path id="Контур_358" data-name="Контур 358" d="M528.91,863.852a7.084,7.084,0,0,1-7.093-7.094h0a7.1,7.1,0,0,1,7.093-7.093h0a7.1,7.1,0,0,1,7.1,7.093h0A7.085,7.085,0,0,1,528.91,863.852Z" transform="translate(-76.579 -849.665)" fill="#fff" fill-rule="evenodd"/>
  <path id="Контур_359" data-name="Контур 359" d="M528.91,899.322a7.084,7.084,0,0,1-7.093-7.094h0a7.085,7.085,0,0,1,7.093-7.1h0a7.086,7.086,0,0,1,7.1,7.1h0A7.085,7.085,0,0,1,528.91,899.322Z" transform="translate(-76.579 -849.728)" fill="#fff" fill-rule="evenodd"/>
  <path id="Контур_360" data-name="Контур 360" d="M528.91,934.791a7.083,7.083,0,0,1-7.093-7.093h0a7.1,7.1,0,0,1,7.093-7.094h0a7.1,7.1,0,0,1,7.1,7.094h0A7.084,7.084,0,0,1,528.91,934.791Z" transform="translate(-76.579 -849.791)" fill="#fff" fill-rule="evenodd"/>
  <path id="Контур_364" data-name="Контур 364" d="M494.623,863.852a7.085,7.085,0,0,1-7.094-7.094h0a7.1,7.1,0,0,1,7.094-7.093h0a7.1,7.1,0,0,1,7.1,7.093h0A7.085,7.085,0,0,1,494.623,863.852Z" transform="translate(-76.48 -849.665)" fill="#fff" fill-rule="evenodd"/>
  <path id="Контур_365" data-name="Контур 365" d="M494.623,899.322a7.085,7.085,0,0,1-7.094-7.094h0a7.086,7.086,0,0,1,7.094-7.1h0a7.086,7.086,0,0,1,7.1,7.1h0A7.085,7.085,0,0,1,494.623,899.322Z" transform="translate(-76.48 -849.728)" fill="#fff" fill-rule="evenodd"/>
  <path id="Контур_366" data-name="Контур 366" d="M494.623,934.791a7.084,7.084,0,0,1-7.094-7.093h0a7.1,7.1,0,0,1,7.094-7.094h0a7.1,7.1,0,0,1,7.1,7.094h0A7.084,7.084,0,0,1,494.623,934.791Z" transform="translate(-76.48 -849.791)" fill="#fff" fill-rule="evenodd"/>
  <path id="Контур_370" data-name="Контур 370" d="M460.337,863.852a7.085,7.085,0,0,1-7.1-7.094h0a7.1,7.1,0,0,1,7.1-7.093h0a7.1,7.1,0,0,1,7.093,7.093h0A7.084,7.084,0,0,1,460.337,863.852Z" transform="translate(-76.447 -849.665)" fill="#fff" fill-rule="evenodd"/>
  <path id="Контур_371" data-name="Контур 371" d="M460.337,899.322a7.085,7.085,0,0,1-7.1-7.094h0a7.086,7.086,0,0,1,7.1-7.1h0a7.085,7.085,0,0,1,7.093,7.1h0A7.084,7.084,0,0,1,460.337,899.322Z" transform="translate(-76.447 -849.728)" fill="#fff" fill-rule="evenodd"/>
  <path id="Контур_372" data-name="Контур 372" d="M460.337,934.791a7.084,7.084,0,0,1-7.1-7.093h0a7.1,7.1,0,0,1,7.1-7.094h0a7.1,7.1,0,0,1,7.093,7.094h0A7.083,7.083,0,0,1,460.337,934.791Z" transform="translate(-76.447 -849.791)" fill="#fff" fill-rule="evenodd"/>
  <path id="Контур_376" data-name="Контур 376" d="M426.05,863.852a7.085,7.085,0,0,1-7.1-7.094h0a7.1,7.1,0,0,1,7.1-7.093h0a7.1,7.1,0,0,1,7.093,7.093h0A7.085,7.085,0,0,1,426.05,863.852Z" transform="translate(-76.414 -849.665)" fill="#fff" fill-rule="evenodd"/>
  <path id="Контур_377" data-name="Контур 377" d="M426.05,899.322a7.085,7.085,0,0,1-7.1-7.094h0a7.085,7.085,0,0,1,7.1-7.1h0a7.086,7.086,0,0,1,7.093,7.1h0A7.085,7.085,0,0,1,426.05,899.322Z" transform="translate(-76.414 -849.728)" fill="#fff" fill-rule="evenodd"/>
  <path id="Контур_378" data-name="Контур 378" d="M426.05,934.791a7.084,7.084,0,0,1-7.1-7.093h0a7.1,7.1,0,0,1,7.1-7.094h0a7.1,7.1,0,0,1,7.093,7.094h0A7.084,7.084,0,0,1,426.05,934.791Z" transform="translate(-76.414 -849.791)" fill="#fff" fill-rule="evenodd"/>
  <path id="Контур_382" data-name="Контур 382" d="M597.486,863.852a7.085,7.085,0,0,1-7.1-7.094h0a7.1,7.1,0,0,1,7.1-7.093h0a7.1,7.1,0,0,1,7.093,7.093h0A7.085,7.085,0,0,1,597.486,863.852Z" transform="translate(-76.579 -849.665)" fill="#fff" fill-rule="evenodd"/>
  <path id="Контур_383" data-name="Контур 383" d="M597.486,899.322a7.085,7.085,0,0,1-7.1-7.094h0a7.085,7.085,0,0,1,7.1-7.1h0a7.086,7.086,0,0,1,7.093,7.1h0A7.085,7.085,0,0,1,597.486,899.322Z" transform="translate(-76.579 -849.728)" fill="#fff" fill-rule="evenodd"/>
  <path id="Контур_384" data-name="Контур 384" d="M597.486,934.791a7.084,7.084,0,0,1-7.1-7.093h0a7.1,7.1,0,0,1,7.1-7.094h0a7.1,7.1,0,0,1,7.093,7.094h0A7.084,7.084,0,0,1,597.486,934.791Z" transform="translate(-76.579 -849.791)" fill="#fff" fill-rule="evenodd"/>
</svg>
